<?xml version="1.0" encoding="UTF-8" standalone="no"?>
<svg width="381mm" height="50.8mm" viewBox="0 0 5400 720"
 xmlns="http://www.w3.org/2000/svg" xmlns:xlink="http://www.w3.org/1999/xlink" version="1.2" baseProfile="full">
<title>Untitled Project 1 - Full score - 01 Flow 1.musicxml</title>
<desc>Generated by MuseScore Studio 4.5.2</desc>
<polyline class="StaffLines" fill="none" stroke="#000000" stroke-width="3.72" stroke-linejoin="bevel" points="336.6,386.2 5187.8,386.2" />
<polyline class="StaffLines" fill="none" stroke="#000000" stroke-width="3.72" stroke-linejoin="bevel" points="336.6,411 5187.8,411" />
<polyline class="StaffLines" fill="none" stroke="#000000" stroke-width="3.72" stroke-linejoin="bevel" points="336.6,435.8 5187.8,435.8" />
<polyline class="StaffLines" fill="none" stroke="#000000" stroke-width="3.72" stroke-linejoin="bevel" points="336.6,460.6 5187.8,460.6" />
<polyline class="StaffLines" fill="none" stroke="#000000" stroke-width="3.72" stroke-linejoin="bevel" points="336.6,485.4 5187.8,485.4" />
<polyline class="BarLine" fill="none" stroke="#000000" stroke-width="3.72" stroke-linejoin="bevel" points="2943.64,384.34 2943.64,487.26" />
<polyline class="BarLine" fill="none" stroke="#000000" stroke-width="3.72" stroke-linejoin="bevel" points="1377.07,384.34 1377.07,487.26" />
<polyline class="BarLine" fill="none" stroke="#000000" stroke-width="3.72" stroke-linejoin="bevel" points="5161.14,384.34 5161.14,487.26" />
<polyline class="BarLine" fill="none" stroke="#000000" stroke-width="12.40" stroke-linejoin="bevel" points="5181.6,384.34 5181.6,487.26" />
<polyline class="BarLine" fill="none" stroke="#000000" stroke-width="3.72" stroke-linejoin="bevel" points="709.473,384.34 709.473,487.26" />
<polyline class="BarLine" fill="none" stroke="#000000" stroke-width="3.72" stroke-linejoin="bevel" points="4825,384.34 4825,487.26" />
<polyline class="BarLine" fill="none" stroke="#000000" stroke-width="3.72" stroke-linejoin="bevel" points="1010.13,384.34 1010.13,487.26" />
<polyline class="BarLine" fill="none" stroke="#000000" stroke-width="3.72" stroke-linejoin="bevel" points="2493.18,384.34 2493.18,487.26" />
<polyline class="BarLine" fill="none" stroke="#000000" stroke-width="3.72" stroke-linejoin="bevel" points="3298.91,384.34 3298.91,487.26" />
<polyline class="BarLine" fill="none" stroke="#000000" stroke-width="3.72" stroke-linejoin="bevel" points="2073.18,384.34 2073.18,487.26" />
<polyline class="BarLine" fill="none" stroke="#000000" stroke-width="3.72" stroke-linejoin="bevel" points="3672.2,384.34 3672.2,487.26" />
<polyline class="BarLine" fill="none" stroke="#000000" stroke-width="3.72" stroke-linejoin="bevel" points="1690.52,384.34 1690.52,487.26" />
<polyline class="BarLine" fill="none" stroke="#000000" stroke-width="3.72" stroke-linejoin="bevel" points="4070.09,384.34 4070.09,487.26" />
<polyline class="BarLine" fill="none" stroke="#000000" stroke-width="3.72" stroke-linejoin="bevel" points="4488.86,384.34 4488.86,487.26" />
<polyline class="BarLine" fill="none" stroke="#000000" stroke-width="3.72" stroke-linejoin="bevel" points="338.46,384.34 338.46,487.26" />
<path class="Clef" transform="matrix(0.992,0,0,0.992,358.92,460.6)" d="M59.2,27.1 C60.9,25 62.3,22.8 63.9,20.4 C68.3,13.9 72.2,6.1 72.2,-3.5 C72.2,-10.8 71.4,-17.2 66.8,-24.4 C64,-28.9 61.2,-31.3 56.2,-31.3 C54.7,-31.3 53.5,-30.9 52.2,-30.9 C48.5,-30.5 47,-30.3 43.5,-29.2 L40.1,-28.1 C37.8,-28.7 37.5,-29.8 37.3,-30.8 C32.7,-50.7 33.4,-45.9 32.3,-50.7 C32.1,-51.7 31.7,-52.6 31.7,-53.3 C31.7,-53.5 31.7,-53.8 31.9,-54 C35.3,-60.6 41.2,-73.3 42.2,-77.3 C43.3,-81.4 43.9,-87.9 43.9,-93.9 C43.9,-99.1 42.2,-104.1 40,-106.6 C39,-107.7 37.9,-108 36.4,-108.7 C35.9,-108.9 35.4,-109 35,-109 C29.8,-109 25.3,-100.3 24.4,-97 C23,-92 22.2,-83.9 22.2,-78.5 C22.2,-72.1 22.8,-66.8 22.8,-61.5 C22.8,-58.5 22.3,-57.4 21.3,-56.4 C20.6,-55.6 19.6,-54.8 18.4,-53.7 C15,-50.7 11.6,-47.4 9.1,-43.6 C1.7,-32.5 0,-15.6 0,-9.3 C0,-5.5 0.5,-1.4 1.2,2.7 C2.7,12.3 5.2,19.8 12.1,26.7 C14.7,29.3 17.7,31.1 20.5,32.8 C25.6,35.9 28.5,37.3 34.9,37.3 C38.4,37.3 48.1,36 51.5,34.5 C51.8,34.4 52,34.3 52.3,34.3 C55.3,34.3 56.2,41.5 56.2,46.5 C56.2,51 55.5,54.9 53.1,60.2 C52.7,61 52.4,62.6 51.3,62.6 C50.5,62.6 50.5,61.7 49.8,60.4 C48.7,58.3 46.3,57.5 44.1,57.5 C41.1,57.5 38.4,59 36,61.4 C33.6,63.9 32.1,65.7 32.1,69.7 C32.1,74 34.2,79.7 41.7,79.7 C49.8,79.7 55.5,73.5 58,65.2 C60,58.5 61.3,54.1 61.3,45.6 C61.3,40.4 60.6,34.9 59.1,30 C58.9,29.3 58.6,28.8 58.6,28.3 C58.6,27.9 58.8,27.5 59.2,27.1 M27.6,-76.5 C27.6,-79.2 27.6,-82.4 28.2,-85.4 C29.2,-90.7 31.4,-95.3 34.1,-95.3 C37.5,-95.3 38.7,-90.4 38.7,-86.9 C38.7,-81 34.9,-74.3 30.6,-68 C30.4,-67.5 30.1,-67.5 29.9,-67.5 C28.3,-67.5 27.6,-75 27.6,-76.5 M25.5,-45.3 C27.3,-45.3 28.1,-41.9 28.9,-38.1 C29.8,-33.6 31.2,-27.1 31.2,-24.5 C31.2,-22.7 31.2,-21.2 30.1,-19.2 C29,-17.1 27.1,-14.7 26.5,-12.5 C25.2,-8.1 24.7,-4.8 24.7,-1.1 C24.7,4.2 27,10.6 34.8,10.6 C39,10.6 40.8,6.5 40.8,3.1 C40.8,0 40.5,-0.9 37.2,-0.9 L36.2,-0.8 C33.9,-0.8 32.6,-1.8 32.6,-4.2 C32.6,-6.3 34.2,-8 36.4,-8 C38.9,-8 42.4,1.9 44.1,6 C45,8.3 46.5,12.1 46.5,14.3 C46.5,17.1 39.8,19.5 32.5,19.5 C25.4,19.5 15.3,15.1 9.8,7.9 C6.2,3.2 5.7,-3.6 5.7,-9.3 C5.7,-19.9 7.8,-30 18.5,-40.7 C20.6,-42.8 23.8,-45 25.5,-45.3 M52.8,10.6 C51.5,7.9 48.7,0.9 47,-2.3 C45.5,-5 42.9,-12.8 42.9,-14 C42.9,-17.3 50.9,-18.1 53.3,-18.3 C57,-18.3 60.4,-16.8 62.4,-14.4 C64.1,-12.4 66,-5.6 66,-2.8 C66,2.1 62.2,7.4 58.8,10.6 C57.8,11.6 56.6,12.2 55.3,12.2 C54.7,12.2 53.4,11.9 52.8,10.6"/>
<path class="TimeSig" transform="matrix(0.992,0,0,0.992,2512.09,409.613)" d="M2.4,23.6 C6.7,23 13.1,21.4 17.4,21.4 C20.2,21.4 22.8,21.8 25.3,22.8 C25.6,22.9 25.9,23 26.3,23 C29.4,23 32.6,20.9 32.6,17.1 C32.6,14.4 30.9,14.7 28.2,13.3 C27.7,13.1 27.1,13 26.4,13 C25.6,13 24.8,13.2 24.1,13.2 C21.9,13.2 21.4,11.9 21.4,10 C21.4,8.2 21.6,5.9 21.6,3.8 C21.6,1.8 21.4,0 21.4,-1.7 C21.4,-5.8 21.6,-3.2 22.4,-18 C22.5,-20.2 23.4,-20.4 23.4,-24.7 C23.4,-26.7 23.3,-27.7 22,-27.7 C21.4,-27.7 20.8,-26 20.2,-25.6 C19.6,-25.2 17.9,-24.9 17.4,-24.6 C3.4,-16.5 2.5,-15.7 2.5,-11.5 C2.5,-9.4 3,-8.1 5.2,-8.1 C7.5,-8.1 9.8,-10.9 10.7,-11.6 C11.2,-12 12.1,-12.1 12.7,-12.1 C15.2,-12.1 15.7,-10.5 15.7,-8.2 C15.7,-6.3 15.6,-4.2 15.6,-2.1 C15.6,2.3 15.9,5.8 15.9,7.8 C15.9,10.5 15.8,14.2 12.8,14.2 C5.7,14.2 -0.3,14.8 -0.3,22.5 C-0.3,23.7 -0.3,25.1 0.6,25.1 C1.9,25.1 1.6,23.7 2.4,23.6"/>
<path class="TimeSig" transform="matrix(0.992,0,0,0.992,2544.33,409.613)" d="M12.2,24.3 C24.2,24.3 35.9,18.1 35.9,4.9 C35.9,-1.1 34.8,-3.5 29.9,-9 C29.4,-9.6 29.1,-10.5 29.1,-11.2 C29.1,-12.3 29.2,-12.5 30.5,-14.2 C30.9,-14.8 31.1,-15.6 31.1,-16.4 C31.1,-21.1 28.4,-25.6 21.5,-25.6 C16.7,-25.6 6.1,-23.7 6.1,-17.3 C6.1,-15 6.8,-12.8 9.5,-12.8 C12.6,-12.8 14,-16 17.6,-16 C20,-16 23.4,-15.8 23.4,-12.3 C23.4,-9.3 17.6,-8.8 14.4,-7.4 C9.7,-5.4 7.5,-2.7 7.5,0.7 C7.5,2.6 8.5,3.6 10.4,3.6 C15.4,3.6 12.9,0.1 22.1,0.1 C25.3,0.1 29.9,0.6 29.9,6.5 C29.9,12.7 18.4,15.3 13,15.3 C10,15.3 10.7,10 5.6,10 C2.4,10 -0.4,13.5 -0.4,17.7 C-0.4,21.8 3.1,23.7 6.8,23.7 L7.5,23.6 C7.7,23.6 7.8,23.6 7.9,23.6 C8.8,23.6 10.5,24.3 12.2,24.3"/>
<path class="TimeSig" transform="matrix(0.992,0,0,0.992,2510.96,464.909)" d="M2.4,23.6 C6.7,23 13.1,21.4 17.4,21.4 C20.2,21.4 22.8,21.8 25.3,22.8 C25.6,22.9 25.9,23 26.3,23 C29.4,23 32.6,20.9 32.6,17.1 C32.6,14.4 30.9,14.7 28.2,13.3 C27.7,13.1 27.1,13 26.4,13 C25.6,13 24.8,13.2 24.1,13.2 C21.9,13.2 21.4,11.9 21.4,10 C21.4,8.2 21.6,5.9 21.6,3.8 C21.6,1.8 21.4,0 21.4,-1.7 C21.4,-5.8 21.6,-3.2 22.4,-18 C22.5,-20.2 23.4,-20.4 23.4,-24.7 C23.4,-26.7 23.3,-27.7 22,-27.7 C21.4,-27.7 20.8,-26 20.2,-25.6 C19.6,-25.2 17.9,-24.9 17.4,-24.6 C3.4,-16.5 2.5,-15.7 2.5,-11.5 C2.5,-9.4 3,-8.1 5.2,-8.1 C7.5,-8.1 9.8,-10.9 10.7,-11.6 C11.2,-12 12.1,-12.1 12.7,-12.1 C15.2,-12.1 15.7,-10.5 15.7,-8.2 C15.7,-6.3 15.6,-4.2 15.6,-2.1 C15.6,2.3 15.9,5.8 15.9,7.8 C15.9,10.5 15.8,14.2 12.8,14.2 C5.7,14.2 -0.3,14.8 -0.3,22.5 C-0.3,23.7 -0.3,25.1 0.6,25.1 C1.9,25.1 1.6,23.7 2.4,23.6"/>
<path class="TimeSig" transform="matrix(0.992,0,0,0.992,2543.2,464.909)" d="M2.2,14.9 C3.3,14.4 4.1,13.2 5.7,12.8 C7.7,12.3 10.4,12 12.9,12 C16.6,12 19.8,12.9 23.4,13.9 C24,14.1 24.6,14.1 24.6,14.9 C24.6,15.1 24.6,15.3 24.6,15.5 L24.5,16.6 C24.5,18.1 24.6,19.5 24.8,21 L23.9,21 C19.8,21.2 11.4,22.8 10.2,27.6 C10,28.4 9.7,29.4 9.7,29.8 C9.7,30.3 9.9,30.8 10.4,31.3 C17.8,28.8 28.4,26.7 34.3,26.7 C35.6,26.7 36.5,25.8 36.5,24.9 C36.5,23.6 36.1,21.5 35.5,20.3 C35.1,20.2 34.6,20.2 34.1,20.2 C32.7,20.2 31,20.6 30,20.7 C29.7,19.8 29.6,19 29.6,18.1 C29.6,16.8 29.7,15 30.7,15 C31,15 31.8,15.2 32.3,15.2 C34.3,15.2 35.5,14.4 37.8,13.5 C38,12.4 38.2,10.9 38.2,9.1 C38.2,8 38.2,6.7 38,5.7 C37.8,4.9 37.9,4.4 37,4.4 C35.9,4.4 35.4,5.8 33.8,5.8 C32.5,5.8 31.3,5.6 30,5.3 C29.6,1.1 29.4,-3.2 29.4,-7.7 C29.4,-12.7 29.6,-17.9 30,-23.2 C28.8,-24 27.9,-24.4 27.2,-24.4 C26.2,-24.4 25.4,-23.8 24.5,-23.1 C17.4,-12.2 9.8,-0.5 0,6.9 C-1,7.9 -1.8,9.1 -1.8,10.4 C-1.8,13.6 -1.2,15.8 -0.2,15.8 C0.5,15.8 1.3,15.3 2.2,14.9 M12.4,2.7 C14.8,0.5 15.5,-1.4 17.4,-4.6 C19.1,-7.4 21.2,-9.9 22.7,-12.1 C23.5,-13.2 23.7,-13.9 24.5,-13.9 C24.6,-13.9 24.7,-13.8 24.7,-13.3 C24.7,-11.9 24.2,-7.6 24.2,-4.8 C24.2,-2.1 24.8,2.4 24.8,3.4 C24.8,4.5 24.3,5 23.5,5 C22.5,5 20.6,4.1 16.7,4.1 C15.6,4.1 14.3,4.3 12.8,4.3 C12.2,4.3 11.9,4.1 11.9,3.7 C11.9,3.5 12,3.1 12.4,2.7"/>
<path class="TimeSig" transform="matrix(0.992,0,0,0.992,1394.65,410.163)" d="M16.1,24.9 C18.2,21.8 19.3,18.6 20.3,15.7 C21.4,12.7 23.1,6.7 24.6,3.7 C27,-2.1 29.4,-7.9 31.6,-15.8 C32.4,-18.7 33,-19.4 33,-22.3 C33,-22.7 32.8,-26.8 29.8,-26.8 C26.4,-26.8 22.9,-24.7 17,-24.7 C15.3,-24.7 13.5,-24.8 11.9,-24.8 C10.6,-24.8 4.9,-24.6 3.8,-23.9 C3,-22.1 1.7,-19.5 1.1,-17.4 C0.9,-16.6 0.4,-16.1 0.2,-15.5 C-0.1,-14.6 -0.1,-13.7 -0.1,-13.4 C-0.1,-11.4 1,-8.7 2.2,-8.7 C2.9,-8.7 3.5,-8.9 3.9,-9.1 C7.3,-10.4 4.1,-14 10.7,-14 C14.1,-14 17.4,-13.8 20.9,-13.8 C22.7,-13.8 23.8,-12.2 23.8,-10.8 C23.8,-9.2 22.7,-7.4 21.8,-5.4 C21,-3.7 20.3,-1.7 20,-0.5 C19,3 16.9,6.7 16.2,9.1 C15.9,10.3 14.5,13.5 14,14.5 C12.9,16.6 12,20.7 12,23.2 C12,25.4 14.4,24.5 16.1,24.9"/>
<path class="TimeSig" transform="matrix(0.992,0,0,0.992,1396.42,460.104)" d="M15.6,25.9 C21.2,25.9 26.4,20.5 26.4,14.9 C26.4,10.3 25,8.1 21.1,5.9 C20.1,5.3 19.2,4.3 19.2,3.1 C19.2,2 20,0.8 21.1,-0.3 C22.2,-1.4 23.6,-2.3 24.8,-3.4 C26.7,-5.1 29.3,-7.4 29.3,-10.8 C29.3,-16.3 25.7,-22.9 19.5,-22.9 C15,-22.9 8.2,-19 5.7,-15.2 C3.2,-11.8 -0.2,-4.4 -0.2,-1.3 C-0.2,0.4 0.3,2.8 1.4,4.1 C2.5,5.4 3.8,6.3 5.1,8.1 C5.3,8.4 5.4,9 5.4,9.4 C5.4,12.1 3.7,11.9 3.5,13.2 C3.3,14.4 3,15.5 3,16.2 C3,18.4 4.2,21.4 5.5,22.7 C7.3,24.4 11.9,25.9 14,25.9 L15.6,25.9 M12.1,0.7 C11.9,0.8 11.3,0.8 10.7,0.8 C8.5,0.8 6.2,0.3 6.2,-2.5 C6.2,-6.6 10.6,-14.2 15.4,-14.2 C19.1,-14.2 19.6,-11.1 19.6,-8.1 C19.6,-4.8 15.3,0.1 12.1,0.7 M14.5,18.9 C12.2,18.9 9.6,18.5 9.6,15.7 C9.6,15.1 10,13.8 10.3,13.1 C10.9,11.4 12,10.8 13.9,10.8 L15,10.8 C15.3,10.8 16.8,10.9 17.3,11.1 C17.9,11.3 19.4,12.9 19.4,14.3 C19.4,15.1 19,16.9 18.3,17.2 C16.9,17.8 15.7,18.9 14.5,18.9"/>
<path class="TimeSig" transform="matrix(0.992,0,0,0.992,458.833,409.613)" d="M2.4,23.6 C6.7,23 13.1,21.4 17.4,21.4 C20.2,21.4 22.8,21.8 25.3,22.8 C25.6,22.9 25.9,23 26.3,23 C29.4,23 32.6,20.9 32.6,17.1 C32.6,14.4 30.9,14.7 28.2,13.3 C27.7,13.1 27.1,13 26.4,13 C25.6,13 24.8,13.2 24.1,13.2 C21.9,13.2 21.4,11.9 21.4,10 C21.4,8.2 21.6,5.9 21.6,3.8 C21.6,1.8 21.4,0 21.4,-1.7 C21.4,-5.8 21.6,-3.2 22.4,-18 C22.5,-20.2 23.4,-20.4 23.4,-24.7 C23.4,-26.7 23.3,-27.7 22,-27.7 C21.4,-27.7 20.8,-26 20.2,-25.6 C19.6,-25.2 17.9,-24.9 17.4,-24.6 C3.4,-16.5 2.5,-15.7 2.5,-11.5 C2.5,-9.4 3,-8.1 5.2,-8.1 C7.5,-8.1 9.8,-10.9 10.7,-11.6 C11.2,-12 12.1,-12.1 12.7,-12.1 C15.2,-12.1 15.7,-10.5 15.7,-8.2 C15.7,-6.3 15.6,-4.2 15.6,-2.1 C15.6,2.3 15.9,5.8 15.9,7.8 C15.9,10.5 15.8,14.2 12.8,14.2 C5.7,14.2 -0.3,14.8 -0.3,22.5 C-0.3,23.7 -0.3,25.1 0.6,25.1 C1.9,25.1 1.6,23.7 2.4,23.6"/>
<path class="TimeSig" transform="matrix(0.992,0,0,0.992,455.919,460.949)" d="M12.4,18.1 C15.7,18.1 16.3,19 20,21.9 C22.8,24.2 25.5,25 27.9,25 C30.1,25 33.4,24.9 35.5,19.5 C35.9,18.5 38.2,14.7 38.2,13.5 C38.2,11.3 38.1,9.2 35.3,9.2 C34.2,9.2 33.7,11.3 33.2,12.3 C32.6,13.5 31.3,14.9 29.7,14.9 C28.3,14.9 27.1,13.2 25.7,12.3 C24.5,11.6 22.5,11.1 21.6,10.4 C20.1,9.2 19,8.8 19,7.5 C19,5.4 22.9,4.7 24.9,3.2 C30.2,-0.8 34.2,-6.5 34.2,-14.1 C34.2,-21.6 27.3,-25.6 23,-25.6 C18.1,-25.6 13.9,-23.5 10.7,-19.4 C9.6,-17.9 7.8,-16.3 7.7,-13.5 C7.7,-12.8 7.2,-12.1 7.2,-11.3 C7.2,-10.6 8.1,-9.1 9.4,-9.1 C13.4,-9.1 13.2,-13.2 16.2,-14.9 C16.9,-15.3 18,-15.3 19.2,-15.3 C23.1,-15.3 27.6,-13.4 27.6,-7.9 C27.6,-3.8 22,-2.1 16.6,1.7 C12.1,4.9 7.2,8.9 4.5,12.8 C2.7,15.4 -0.6,16.1 -0.6,22.1 C-0.6,23.5 -0.5,25.2 1.5,25.2 C2.4,25.2 3.2,25.1 3.2,24.1 L3.1,23.8 C3.1,20.7 9.5,18.1 12.4,18.1"/>
<path class="TimeSig" transform="matrix(0.992,0,0,0.992,2961.42,409.613)" d="M2.4,23.6 C6.7,23 13.1,21.4 17.4,21.4 C20.2,21.4 22.8,21.8 25.3,22.8 C25.6,22.9 25.9,23 26.3,23 C29.4,23 32.6,20.9 32.6,17.1 C32.6,14.4 30.9,14.7 28.2,13.3 C27.7,13.1 27.1,13 26.4,13 C25.6,13 24.8,13.2 24.1,13.2 C21.9,13.2 21.4,11.9 21.4,10 C21.4,8.2 21.6,5.9 21.6,3.8 C21.6,1.8 21.4,0 21.4,-1.7 C21.4,-5.8 21.6,-3.2 22.4,-18 C22.5,-20.2 23.4,-20.4 23.4,-24.7 C23.4,-26.7 23.3,-27.7 22,-27.7 C21.4,-27.7 20.8,-26 20.2,-25.6 C19.6,-25.2 17.9,-24.9 17.4,-24.6 C3.4,-16.5 2.5,-15.7 2.5,-11.5 C2.5,-9.4 3,-8.1 5.2,-8.1 C7.5,-8.1 9.8,-10.9 10.7,-11.6 C11.2,-12 12.1,-12.1 12.7,-12.1 C15.2,-12.1 15.7,-10.5 15.7,-8.2 C15.7,-6.3 15.6,-4.2 15.6,-2.1 C15.6,2.3 15.9,5.8 15.9,7.8 C15.9,10.5 15.8,14.2 12.8,14.2 C5.7,14.2 -0.3,14.8 -0.3,22.5 C-0.3,23.7 -0.3,25.1 0.6,25.1 C1.9,25.1 1.6,23.7 2.4,23.6"/>
<path class="TimeSig" transform="matrix(0.992,0,0,0.992,2993.66,409.613)" d="M0,20.4 C4.5,22.5 9.5,23.7 12.3,23.7 C16.2,23.7 22.4,22.2 24.9,19.2 C26.7,17 28.3,11.5 28.3,5.3 C28.3,-0.5 25.9,-6.2 19.4,-6.2 C18.3,-6.2 17.1,-5.7 16.1,-5.7 C14.2,-5.7 12.8,-7.7 12.8,-8.6 C12.8,-10.2 14.4,-12.6 16,-13.3 C17.2,-13.8 18.8,-13.9 20.4,-13.9 C22.4,-13.9 24,-13.5 25.8,-13.5 C29.4,-13.5 33,-15 33,-19.3 C33,-20.9 32.7,-22.5 32.7,-23.5 L32.7,-24.2 C32.7,-25.4 32.5,-26.7 31.4,-26.7 C30.9,-26.7 30.5,-26.5 30.2,-26.4 C29.6,-25.7 29.5,-24.6 28.9,-24.6 C26.6,-24.4 23.9,-23.9 21.3,-23.7 C18.6,-23.4 15.9,-23.4 13.2,-23.4 L12,-23.6 C10.1,-23.6 9.5,-22.6 9,-20.9 C7.8,-17 8,-10.3 7.9,-9.6 C7.8,-7.9 7.5,-5.6 6.9,-3.5 C6.5,-2.2 5.7,-1.1 5.5,0.1 C5.4,0.6 5.4,1.2 5.4,1.5 C5.4,3 6,5.2 7.5,5.2 C8.3,5.2 9.2,4.9 10.2,4.5 C12.2,3.6 14.5,2.2 17.5,2.2 C20.1,2.2 22.1,6.4 22.1,8.8 C22.1,12.6 17.9,14.5 14.6,14.5 C11.8,14.5 7.7,13.6 6.4,12.9 C5.8,12.6 5.7,10.9 4,10.9 C3,10.9 -0.3,17.1 -0.3,18.8 C-0.3,19.7 -0.1,19.9 0,20.4"/>
<path class="TimeSig" transform="matrix(0.992,0,0,0.992,2961.42,462.134)" d="M2.4,23.6 C6.7,23 13.1,21.4 17.4,21.4 C20.2,21.4 22.8,21.8 25.3,22.8 C25.6,22.9 25.9,23 26.3,23 C29.4,23 32.6,20.9 32.6,17.1 C32.6,14.4 30.9,14.7 28.2,13.3 C27.7,13.1 27.1,13 26.4,13 C25.6,13 24.8,13.2 24.1,13.2 C21.9,13.2 21.4,11.9 21.4,10 C21.4,8.2 21.6,5.9 21.6,3.8 C21.6,1.8 21.4,0 21.4,-1.7 C21.4,-5.8 21.6,-3.2 22.4,-18 C22.5,-20.2 23.4,-20.4 23.4,-24.7 C23.4,-26.7 23.3,-27.7 22,-27.7 C21.4,-27.7 20.8,-26 20.2,-25.6 C19.6,-25.2 17.9,-24.9 17.4,-24.6 C3.4,-16.5 2.5,-15.7 2.5,-11.5 C2.5,-9.4 3,-8.1 5.2,-8.1 C7.5,-8.1 9.8,-10.9 10.7,-11.6 C11.2,-12 12.1,-12.1 12.7,-12.1 C15.2,-12.1 15.7,-10.5 15.7,-8.2 C15.7,-6.3 15.6,-4.2 15.6,-2.1 C15.6,2.3 15.9,5.8 15.9,7.8 C15.9,10.5 15.8,14.2 12.8,14.2 C5.7,14.2 -0.3,14.8 -0.3,22.5 C-0.3,23.7 -0.3,25.1 0.6,25.1 C1.9,25.1 1.6,23.7 2.4,23.6"/>
<path class="TimeSig" transform="matrix(0.992,0,0,0.992,2993.66,462.134)" d="M11.7,25.6 C21.1,25.6 33,16.9 33,2.5 C33,-5.1 32.5,-9.9 24,-9.9 C19.5,-9.9 14.4,-5.3 13.7,-4.9 C12.7,-4.3 11.5,-4 10.4,-4 C9.6,-4 9,-4.4 9,-5.6 C9,-10.5 13.2,-16.5 14.2,-19.2 C14.9,-21.2 16.6,-23.3 16.6,-25.6 C16.6,-27.1 14.3,-27.2 13.8,-27.2 C10,-27.2 5.2,-13.9 4,-11.2 C-0.1,-2.2 -0.6,-0.4 -0.6,7.3 C-0.6,16.6 3.2,25.6 11.7,25.6 M15.2,16.7 C10.5,16.7 9.2,13.9 9.2,9.8 C9.2,2.7 15.8,-1.6 22.3,-1.6 C27.5,-1.6 28.2,2.4 28.2,5.2 C28.2,12.5 21.1,16.7 15.2,16.7"/>
<path class="TimeSig" transform="matrix(0.992,0,0,0.992,4842.48,435.8)" d="M16.8,40.7 C17.2,40.9 17.6,41 18.1,41 C18.6,41 19.1,40.9 19.6,40.7 C19.2,35.2 18.9,29.8 18.6,24.3 C19.6,24.4 20.7,24.5 21.8,24.5 C27.6,24.5 33.1,20.4 35.9,15.4 C36.7,14 37.3,12.1 37.3,10.9 C37.3,9 36.2,6.4 35,6.4 C32.9,6.4 32.6,9.4 30.6,10.5 C28.1,11.9 25.4,13.3 22.4,13.3 C21.4,13.3 19.9,13.3 18.3,13.2 C18.3,12.4 18.3,11.7 18.3,10.9 L18.2,6.3 C18.2,0.2 18.3,-6 18.5,-12.1 L19,-12.1 C19.5,-12 19.7,-11.6 19.7,-11 C19.7,-10.2 19.1,-9.1 19.1,-8.2 C19.1,-4.9 23.3,-2.3 25.4,-2.3 C31.2,-2.3 34.8,-8.4 34.8,-13.6 L34.6,-15.1 C34.6,-15.4 34.6,-15.6 34.6,-15.9 C34.6,-19.4 28.6,-23.9 27.8,-24.4 C26.2,-25.3 23.4,-25.5 21.8,-25.5 C20.9,-25.5 19.9,-25.3 19,-25.1 C19.2,-28.8 19.5,-32.6 19.8,-36.4 C19.4,-36.7 18.9,-36.9 18.5,-36.9 C17.6,-36.9 16.7,-36.4 16.1,-35.9 C15.9,-31.9 15.8,-27.9 15.7,-24 C11.1,-22.5 4.1,-14.5 2.4,-9.4 C0.3,-4.2 0,2.3 0,3.5 C0,10.7 1.9,21.8 16.1,24.1 C16.3,29.6 16.5,35.1 16.8,40.7 M6.1,2.8 C6.1,-3.1 7.8,-6.9 12.5,-10.4 C13.4,-11 14.4,-11.6 15.6,-12 C15.6,-9.7 15.5,-7.5 15.5,-5.3 C15.5,0.9 15.6,6.9 15.8,13 C10.5,11.5 6.1,8.8 6.1,2.8"/>
<path class="TimeSig" transform="matrix(0.992,0,0,0.992,2093.74,409.613)" d="M2.4,23.6 C6.7,23 13.1,21.4 17.4,21.4 C20.2,21.4 22.8,21.8 25.3,22.8 C25.6,22.9 25.9,23 26.3,23 C29.4,23 32.6,20.9 32.6,17.1 C32.6,14.4 30.9,14.7 28.2,13.3 C27.7,13.1 27.1,13 26.4,13 C25.6,13 24.8,13.2 24.1,13.2 C21.9,13.2 21.4,11.9 21.4,10 C21.4,8.2 21.6,5.9 21.6,3.8 C21.6,1.8 21.4,0 21.4,-1.7 C21.4,-5.8 21.6,-3.2 22.4,-18 C22.5,-20.2 23.4,-20.4 23.4,-24.7 C23.4,-26.7 23.3,-27.7 22,-27.7 C21.4,-27.7 20.8,-26 20.2,-25.6 C19.6,-25.2 17.9,-24.9 17.4,-24.6 C3.4,-16.5 2.5,-15.7 2.5,-11.5 C2.5,-9.4 3,-8.1 5.2,-8.1 C7.5,-8.1 9.8,-10.9 10.7,-11.6 C11.2,-12 12.1,-12.1 12.7,-12.1 C15.2,-12.1 15.7,-10.5 15.7,-8.2 C15.7,-6.3 15.6,-4.2 15.6,-2.1 C15.6,2.3 15.9,5.8 15.9,7.8 C15.9,10.5 15.8,14.2 12.8,14.2 C5.7,14.2 -0.3,14.8 -0.3,22.5 C-0.3,23.7 -0.3,25.1 0.6,25.1 C1.9,25.1 1.6,23.7 2.4,23.6"/>
<path class="TimeSig" transform="matrix(0.992,0,0,0.992,2125.98,409.613)" d="M2.4,23.6 C6.7,23 13.1,21.4 17.4,21.4 C20.2,21.4 22.8,21.8 25.3,22.8 C25.6,22.9 25.9,23 26.3,23 C29.4,23 32.6,20.9 32.6,17.1 C32.6,14.4 30.9,14.7 28.2,13.3 C27.7,13.1 27.1,13 26.4,13 C25.6,13 24.8,13.2 24.1,13.2 C21.9,13.2 21.4,11.9 21.4,10 C21.4,8.2 21.6,5.9 21.6,3.8 C21.6,1.8 21.4,0 21.4,-1.7 C21.4,-5.8 21.6,-3.2 22.4,-18 C22.5,-20.2 23.4,-20.4 23.4,-24.7 C23.4,-26.7 23.3,-27.7 22,-27.7 C21.4,-27.7 20.8,-26 20.2,-25.6 C19.6,-25.2 17.9,-24.9 17.4,-24.6 C3.4,-16.5 2.5,-15.7 2.5,-11.5 C2.5,-9.4 3,-8.1 5.2,-8.1 C7.5,-8.1 9.8,-10.9 10.7,-11.6 C11.2,-12 12.1,-12.1 12.7,-12.1 C15.2,-12.1 15.7,-10.5 15.7,-8.2 C15.7,-6.3 15.6,-4.2 15.6,-2.1 C15.6,2.3 15.9,5.8 15.9,7.8 C15.9,10.5 15.8,14.2 12.8,14.2 C5.7,14.2 -0.3,14.8 -0.3,22.5 C-0.3,23.7 -0.3,25.1 0.6,25.1 C1.9,25.1 1.6,23.7 2.4,23.6"/>
<path class="TimeSig" transform="matrix(0.992,0,0,0.992,2090.96,461.987)" d="M2.4,23.6 C6.7,23 13.1,21.4 17.4,21.4 C20.2,21.4 22.8,21.8 25.3,22.8 C25.6,22.9 25.9,23 26.3,23 C29.4,23 32.6,20.9 32.6,17.1 C32.6,14.4 30.9,14.7 28.2,13.3 C27.7,13.1 27.1,13 26.4,13 C25.6,13 24.8,13.2 24.1,13.2 C21.9,13.2 21.4,11.9 21.4,10 C21.4,8.2 21.6,5.9 21.6,3.8 C21.6,1.8 21.4,0 21.4,-1.7 C21.4,-5.8 21.6,-3.2 22.4,-18 C22.5,-20.2 23.4,-20.4 23.4,-24.7 C23.4,-26.7 23.3,-27.7 22,-27.7 C21.4,-27.7 20.8,-26 20.2,-25.6 C19.6,-25.2 17.9,-24.9 17.4,-24.6 C3.4,-16.5 2.5,-15.7 2.5,-11.5 C2.5,-9.4 3,-8.1 5.2,-8.1 C7.5,-8.1 9.8,-10.9 10.7,-11.6 C11.2,-12 12.1,-12.1 12.7,-12.1 C15.2,-12.1 15.7,-10.5 15.7,-8.2 C15.7,-6.3 15.6,-4.2 15.6,-2.1 C15.6,2.3 15.9,5.8 15.9,7.8 C15.9,10.5 15.8,14.2 12.8,14.2 C5.7,14.2 -0.3,14.8 -0.3,22.5 C-0.3,23.7 -0.3,25.1 0.6,25.1 C1.9,25.1 1.6,23.7 2.4,23.6"/>
<path class="TimeSig" transform="matrix(0.992,0,0,0.992,2123.2,461.987)" d="M12.4,18.1 C15.7,18.1 16.3,19 20,21.9 C22.8,24.2 25.5,25 27.9,25 C30.1,25 33.4,24.9 35.5,19.5 C35.9,18.5 38.2,14.7 38.2,13.5 C38.2,11.3 38.1,9.2 35.3,9.2 C34.2,9.2 33.7,11.3 33.2,12.3 C32.6,13.5 31.3,14.9 29.7,14.9 C28.3,14.9 27.1,13.2 25.7,12.3 C24.5,11.6 22.5,11.1 21.6,10.4 C20.1,9.2 19,8.8 19,7.5 C19,5.4 22.9,4.7 24.9,3.2 C30.2,-0.8 34.2,-6.5 34.2,-14.1 C34.2,-21.6 27.3,-25.6 23,-25.6 C18.1,-25.6 13.9,-23.5 10.7,-19.4 C9.6,-17.9 7.8,-16.3 7.7,-13.5 C7.7,-12.8 7.2,-12.1 7.2,-11.3 C7.2,-10.6 8.1,-9.1 9.4,-9.1 C13.4,-9.1 13.2,-13.2 16.2,-14.9 C16.9,-15.3 18,-15.3 19.2,-15.3 C23.1,-15.3 27.6,-13.4 27.6,-7.9 C27.6,-3.8 22,-2.1 16.6,1.7 C12.1,4.9 7.2,8.9 4.5,12.8 C2.7,15.4 -0.6,16.1 -0.6,22.1 C-0.6,23.5 -0.5,25.2 1.5,25.2 C2.4,25.2 3.2,25.1 3.2,24.1 L3.1,23.8 C3.1,20.7 9.5,18.1 12.4,18.1"/>
<path class="TimeSig" transform="matrix(0.992,0,0,0.992,730.569,411.155)" d="M12.2,24.3 C24.2,24.3 35.9,18.1 35.9,4.9 C35.9,-1.1 34.8,-3.5 29.9,-9 C29.4,-9.6 29.1,-10.5 29.1,-11.2 C29.1,-12.3 29.2,-12.5 30.5,-14.2 C30.9,-14.8 31.1,-15.6 31.1,-16.4 C31.1,-21.1 28.4,-25.6 21.5,-25.6 C16.7,-25.6 6.1,-23.7 6.1,-17.3 C6.1,-15 6.8,-12.8 9.5,-12.8 C12.6,-12.8 14,-16 17.6,-16 C20,-16 23.4,-15.8 23.4,-12.3 C23.4,-9.3 17.6,-8.8 14.4,-7.4 C9.7,-5.4 7.5,-2.7 7.5,0.7 C7.5,2.6 8.5,3.6 10.4,3.6 C15.4,3.6 12.9,0.1 22.1,0.1 C25.3,0.1 29.9,0.6 29.9,6.5 C29.9,12.7 18.4,15.3 13,15.3 C10,15.3 10.7,10 5.6,10 C2.4,10 -0.4,13.5 -0.4,17.7 C-0.4,21.8 3.1,23.7 6.8,23.7 L7.5,23.6 C7.7,23.6 7.8,23.6 7.9,23.6 C8.8,23.6 10.5,24.3 12.2,24.3"/>
<path class="TimeSig" transform="matrix(0.992,0,0,0.992,728.74,463.32)" d="M2.2,14.9 C3.3,14.4 4.1,13.2 5.7,12.8 C7.7,12.3 10.4,12 12.9,12 C16.6,12 19.8,12.9 23.4,13.9 C24,14.1 24.6,14.1 24.6,14.9 C24.6,15.1 24.6,15.3 24.6,15.5 L24.5,16.6 C24.5,18.1 24.6,19.5 24.8,21 L23.9,21 C19.8,21.2 11.4,22.8 10.2,27.6 C10,28.4 9.7,29.4 9.7,29.8 C9.7,30.3 9.9,30.8 10.4,31.3 C17.8,28.8 28.4,26.7 34.3,26.7 C35.6,26.7 36.5,25.8 36.5,24.9 C36.5,23.6 36.1,21.5 35.5,20.3 C35.1,20.2 34.6,20.2 34.1,20.2 C32.7,20.2 31,20.6 30,20.7 C29.7,19.8 29.6,19 29.6,18.1 C29.6,16.8 29.7,15 30.7,15 C31,15 31.8,15.2 32.3,15.2 C34.3,15.2 35.5,14.4 37.8,13.5 C38,12.4 38.2,10.9 38.2,9.1 C38.2,8 38.2,6.7 38,5.7 C37.8,4.9 37.9,4.4 37,4.4 C35.9,4.4 35.4,5.8 33.8,5.8 C32.5,5.8 31.3,5.6 30,5.3 C29.6,1.1 29.4,-3.2 29.4,-7.7 C29.4,-12.7 29.6,-17.9 30,-23.2 C28.8,-24 27.9,-24.4 27.2,-24.4 C26.2,-24.4 25.4,-23.8 24.5,-23.1 C17.4,-12.2 9.8,-0.5 0,6.9 C-1,7.9 -1.8,9.1 -1.8,10.4 C-1.8,13.6 -1.2,15.8 -0.2,15.8 C0.5,15.8 1.3,15.3 2.2,14.9 M12.4,2.7 C14.8,0.5 15.5,-1.4 17.4,-4.6 C19.1,-7.4 21.2,-9.9 22.7,-12.1 C23.5,-13.2 23.7,-13.9 24.5,-13.9 C24.6,-13.9 24.7,-13.8 24.7,-13.3 C24.7,-11.9 24.2,-7.6 24.2,-4.8 C24.2,-2.1 24.8,2.4 24.8,3.4 C24.8,4.5 24.3,5 23.5,5 C22.5,5 20.6,4.1 16.7,4.1 C15.6,4.1 14.3,4.3 12.8,4.3 C12.2,4.3 11.9,4.1 11.9,3.7 C11.9,3.5 12,3.1 12.4,2.7"/>
<path class="TimeSig" transform="matrix(0.992,0,0,0.992,3316.69,409.613)" d="M2.4,23.6 C6.7,23 13.1,21.4 17.4,21.4 C20.2,21.4 22.8,21.8 25.3,22.8 C25.6,22.9 25.9,23 26.3,23 C29.4,23 32.6,20.9 32.6,17.1 C32.6,14.4 30.9,14.7 28.2,13.3 C27.7,13.1 27.1,13 26.4,13 C25.6,13 24.8,13.2 24.1,13.2 C21.9,13.2 21.4,11.9 21.4,10 C21.4,8.2 21.6,5.9 21.6,3.8 C21.6,1.8 21.4,0 21.4,-1.7 C21.4,-5.8 21.6,-3.2 22.4,-18 C22.5,-20.2 23.4,-20.4 23.4,-24.7 C23.4,-26.7 23.3,-27.7 22,-27.7 C21.4,-27.7 20.8,-26 20.2,-25.6 C19.6,-25.2 17.9,-24.9 17.4,-24.6 C3.4,-16.5 2.5,-15.7 2.5,-11.5 C2.5,-9.4 3,-8.1 5.2,-8.1 C7.5,-8.1 9.8,-10.9 10.7,-11.6 C11.2,-12 12.1,-12.1 12.7,-12.1 C15.2,-12.1 15.7,-10.5 15.7,-8.2 C15.7,-6.3 15.6,-4.2 15.6,-2.1 C15.6,2.3 15.9,5.8 15.9,7.8 C15.9,10.5 15.8,14.2 12.8,14.2 C5.7,14.2 -0.3,14.8 -0.3,22.5 C-0.3,23.7 -0.3,25.1 0.6,25.1 C1.9,25.1 1.6,23.7 2.4,23.6"/>
<path class="TimeSig" transform="matrix(0.992,0,0,0.992,3348.93,409.613)" d="M16.1,24.9 C18.2,21.8 19.3,18.6 20.3,15.7 C21.4,12.7 23.1,6.7 24.6,3.7 C27,-2.1 29.4,-7.9 31.6,-15.8 C32.4,-18.7 33,-19.4 33,-22.3 C33,-22.7 32.8,-26.8 29.8,-26.8 C26.4,-26.8 22.9,-24.7 17,-24.7 C15.3,-24.7 13.5,-24.8 11.9,-24.8 C10.6,-24.8 4.9,-24.6 3.8,-23.9 C3,-22.1 1.7,-19.5 1.1,-17.4 C0.9,-16.6 0.4,-16.1 0.2,-15.5 C-0.1,-14.6 -0.1,-13.7 -0.1,-13.4 C-0.1,-11.4 1,-8.7 2.2,-8.7 C2.9,-8.7 3.5,-8.9 3.9,-9.1 C7.3,-10.4 4.1,-14 10.7,-14 C14.1,-14 17.4,-13.8 20.9,-13.8 C22.7,-13.8 23.8,-12.2 23.8,-10.8 C23.8,-9.2 22.7,-7.4 21.8,-5.4 C21,-3.7 20.3,-1.7 20,-0.5 C19,3 16.9,6.7 16.2,9.1 C15.9,10.3 14.5,13.5 14,14.5 C12.9,16.6 12,20.7 12,23.2 C12,25.4 14.4,24.5 16.1,24.9"/>
<path class="TimeSig" transform="matrix(0.992,0,0,0.992,3318.52,462.382)" d="M2.4,23.6 C6.7,23 13.1,21.4 17.4,21.4 C20.2,21.4 22.8,21.8 25.3,22.8 C25.6,22.9 25.9,23 26.3,23 C29.4,23 32.6,20.9 32.6,17.1 C32.6,14.4 30.9,14.7 28.2,13.3 C27.7,13.1 27.1,13 26.4,13 C25.6,13 24.8,13.2 24.1,13.2 C21.9,13.2 21.4,11.9 21.4,10 C21.4,8.2 21.6,5.9 21.6,3.8 C21.6,1.8 21.4,0 21.4,-1.7 C21.4,-5.8 21.6,-3.2 22.4,-18 C22.5,-20.2 23.4,-20.4 23.4,-24.7 C23.4,-26.7 23.3,-27.7 22,-27.7 C21.4,-27.7 20.8,-26 20.2,-25.6 C19.6,-25.2 17.9,-24.9 17.4,-24.6 C3.4,-16.5 2.5,-15.7 2.5,-11.5 C2.5,-9.4 3,-8.1 5.2,-8.1 C7.5,-8.1 9.8,-10.9 10.7,-11.6 C11.2,-12 12.1,-12.1 12.7,-12.1 C15.2,-12.1 15.7,-10.5 15.7,-8.2 C15.7,-6.3 15.6,-4.2 15.6,-2.1 C15.6,2.3 15.9,5.8 15.9,7.8 C15.9,10.5 15.8,14.2 12.8,14.2 C5.7,14.2 -0.3,14.8 -0.3,22.5 C-0.3,23.7 -0.3,25.1 0.6,25.1 C1.9,25.1 1.6,23.7 2.4,23.6"/>
<path class="TimeSig" transform="matrix(0.992,0,0,0.992,3350.76,462.382)" d="M15.6,25.9 C21.2,25.9 26.4,20.5 26.4,14.9 C26.4,10.3 25,8.1 21.1,5.9 C20.1,5.3 19.2,4.3 19.2,3.1 C19.2,2 20,0.8 21.1,-0.3 C22.2,-1.4 23.6,-2.3 24.8,-3.4 C26.7,-5.1 29.3,-7.4 29.3,-10.8 C29.3,-16.3 25.7,-22.9 19.5,-22.9 C15,-22.9 8.2,-19 5.7,-15.2 C3.2,-11.8 -0.2,-4.4 -0.2,-1.3 C-0.2,0.4 0.3,2.8 1.4,4.1 C2.5,5.4 3.8,6.3 5.1,8.1 C5.3,8.4 5.4,9 5.4,9.4 C5.4,12.1 3.7,11.9 3.5,13.2 C3.3,14.4 3,15.5 3,16.2 C3,18.4 4.2,21.4 5.5,22.7 C7.3,24.4 11.9,25.9 14,25.9 L15.6,25.9 M12.1,0.7 C11.9,0.8 11.3,0.8 10.7,0.8 C8.5,0.8 6.2,0.3 6.2,-2.5 C6.2,-6.6 10.6,-14.2 15.4,-14.2 C19.1,-14.2 19.6,-11.1 19.6,-8.1 C19.6,-4.8 15.3,0.1 12.1,0.7 M14.5,18.9 C12.2,18.9 9.6,18.5 9.6,15.7 C9.6,15.1 10,13.8 10.3,13.1 C10.9,11.4 12,10.8 13.9,10.8 L15,10.8 C15.3,10.8 16.8,10.9 17.3,11.1 C17.9,11.3 19.4,12.9 19.4,14.3 C19.4,15.1 19,16.9 18.3,17.2 C16.9,17.8 15.7,18.9 14.5,18.9"/>
<path class="TimeSig" transform="matrix(0.992,0,0,0.992,4506.34,435.8)" d="M6.4,5.2 C6.4,3.9 6.3,2.7 6.3,1.6 C6.3,-2.8 6.9,-6.2 12.5,-10.4 C13.7,-11.3 15.3,-12.1 16.9,-12.4 L19,-12.1 C19.5,-12 19.7,-11.6 19.7,-11 C19.7,-10.2 19.1,-9.1 19.1,-8.2 C19.1,-4.9 23.3,-2.3 25.4,-2.3 C30.3,-2.3 34.8,-7.6 34.8,-12.8 C34.8,-13.1 34.8,-13.3 34.8,-13.6 L34.6,-15.1 C34.6,-15.4 34.6,-15.6 34.6,-15.9 C34.6,-19.4 28.5,-24 27.7,-24.5 C26.5,-25.2 23.1,-25.5 21.8,-25.5 C20.3,-25.5 17.4,-24.8 14.6,-23.5 C9.7,-21.2 4.4,-14.3 2.4,-9.4 C0.3,-4.2 0,2.3 0,3.5 C0,11.6 2.4,24.5 21.8,24.5 C25.2,24.5 27.3,23.8 30.8,21 C32.4,19.7 37.3,15.8 37.3,10.9 C37.3,9 36.2,6.4 35,6.4 C32.9,6.4 32.6,9.4 30.6,10.5 C27.5,12.3 25.5,13.3 21,13.3 C18.9,13.3 17.6,13.2 15.9,13 C13.2,12.7 6.8,8.8 6.4,5.2"/>
<path class="TimeSig" transform="matrix(0.992,0,0,0.992,1725.16,409.016)" d="M17.6,29 C20,25.1 23.8,18.1 25.4,13.9 C26.6,10.8 27.5,7.7 28.6,4.4 C29.2,2.6 29.3,0.6 30.1,-1.2 C31.2,-3.8 31.9,-7 31.9,-9.8 C31.9,-17.1 30.4,-24.1 19.8,-24.1 C12,-24.1 -0.6,-9.4 -0.6,-1.1 C-0.6,4.2 3.7,9.9 9.7,9.9 C12.8,9.9 13.8,7.8 16.1,7.8 C18,7.8 19.5,9.1 19.5,11.2 C19.5,12.8 16.6,16.4 15.2,19.1 C14.4,20.7 10.6,26.3 10.6,27.4 C10.6,28.7 12.5,29.9 14.7,29.9 C16.3,29.9 17,29.7 17.6,29 M10.3,0.5 C8.9,0.5 6.6,0.1 6.6,-4.1 C6.6,-8.4 12.1,-12 14.6,-13.7 C15.7,-14.5 17.6,-15 19.4,-15 C23.1,-15 25.8,-13.6 25.8,-9.7 C25.6,-7.6 21.6,-4.5 20.2,-3.4 C18.1,-1.8 13.4,0.5 10.3,0.5"/>
<path class="TimeSig" transform="matrix(0.992,0,0,0.992,1708.3,461.987)" d="M2.4,23.6 C6.7,23 13.1,21.4 17.4,21.4 C20.2,21.4 22.8,21.8 25.3,22.8 C25.6,22.9 25.9,23 26.3,23 C29.4,23 32.6,20.9 32.6,17.1 C32.6,14.4 30.9,14.7 28.2,13.3 C27.7,13.1 27.1,13 26.4,13 C25.6,13 24.8,13.2 24.1,13.2 C21.9,13.2 21.4,11.9 21.4,10 C21.4,8.2 21.6,5.9 21.6,3.8 C21.6,1.8 21.4,0 21.4,-1.7 C21.4,-5.8 21.6,-3.2 22.4,-18 C22.5,-20.2 23.4,-20.4 23.4,-24.7 C23.4,-26.7 23.3,-27.7 22,-27.7 C21.4,-27.7 20.8,-26 20.2,-25.6 C19.6,-25.2 17.9,-24.9 17.4,-24.6 C3.4,-16.5 2.5,-15.7 2.5,-11.5 C2.5,-9.4 3,-8.1 5.2,-8.1 C7.5,-8.1 9.8,-10.9 10.7,-11.6 C11.2,-12 12.1,-12.1 12.7,-12.1 C15.2,-12.1 15.7,-10.5 15.7,-8.2 C15.7,-6.3 15.6,-4.2 15.6,-2.1 C15.6,2.3 15.9,5.8 15.9,7.8 C15.9,10.5 15.8,14.2 12.8,14.2 C5.7,14.2 -0.3,14.8 -0.3,22.5 C-0.3,23.7 -0.3,25.1 0.6,25.1 C1.9,25.1 1.6,23.7 2.4,23.6"/>
<path class="TimeSig" transform="matrix(0.992,0,0,0.992,1740.54,461.987)" d="M13.6,24.4 C17.5,24.2 23,20.4 26.9,15.6 C30.4,11.2 33.7,3.2 33.7,-2.6 C33.7,-9.1 32.8,-15.2 29.4,-20.8 C26.6,-24.7 24.1,-26 19.5,-26 C17.5,-26 15.9,-26 14.2,-25.3 C8.1,-22.7 2.5,-13.2 0.7,0.2 C0.6,0.6 0.6,1.1 0.6,1.6 C0.6,6 1.7,12.8 3.1,17.8 C4.4,22.5 8.6,24.4 13.1,24.4 L13.6,24.4 M12.3,13.4 C10.1,12.2 9.2,1.6 9.2,1.6 C9.2,-3 11.3,-16 17.7,-16 C23,-16 24,-13.2 25.5,-9 C26.1,-7.5 26.3,-5.5 26.3,-4.1 C26.3,3.7 23.2,13.7 13.9,13.7 C13.2,13.7 12.7,13.6 12.3,13.4"/>
<path class="TimeSig" transform="matrix(0.992,0,0,0.992,1028.34,410.752)" d="M0,20.4 C4.5,22.5 9.5,23.7 12.3,23.7 C16.2,23.7 22.4,22.2 24.9,19.2 C26.7,17 28.3,11.5 28.3,5.3 C28.3,-0.5 25.9,-6.2 19.4,-6.2 C18.3,-6.2 17.1,-5.7 16.1,-5.7 C14.2,-5.7 12.8,-7.7 12.8,-8.6 C12.8,-10.2 14.4,-12.6 16,-13.3 C17.2,-13.8 18.8,-13.9 20.4,-13.9 C22.4,-13.9 24,-13.5 25.8,-13.5 C29.4,-13.5 33,-15 33,-19.3 C33,-20.9 32.7,-22.5 32.7,-23.5 L32.7,-24.2 C32.7,-25.4 32.5,-26.7 31.4,-26.7 C30.9,-26.7 30.5,-26.5 30.2,-26.4 C29.6,-25.7 29.5,-24.6 28.9,-24.6 C26.6,-24.4 23.9,-23.9 21.3,-23.7 C18.6,-23.4 15.9,-23.4 13.2,-23.4 L12,-23.6 C10.1,-23.6 9.5,-22.6 9,-20.9 C7.8,-17 8,-10.3 7.9,-9.6 C7.8,-7.9 7.5,-5.6 6.9,-3.5 C6.5,-2.2 5.7,-1.1 5.5,0.1 C5.4,0.6 5.4,1.2 5.4,1.5 C5.4,3 6,5.2 7.5,5.2 C8.3,5.2 9.2,4.9 10.2,4.5 C12.2,3.6 14.5,2.2 17.5,2.2 C20.1,2.2 22.1,6.4 22.1,8.8 C22.1,12.6 17.9,14.5 14.6,14.5 C11.8,14.5 7.7,13.6 6.4,12.9 C5.8,12.6 5.7,10.9 4,10.9 C3,10.9 -0.3,17.1 -0.3,18.8 C-0.3,19.7 -0.1,19.9 0,20.4"/>
<path class="TimeSig" transform="matrix(0.992,0,0,0.992,1028.2,461.886)" d="M11.7,25.6 C21.1,25.6 33,16.9 33,2.5 C33,-5.1 32.5,-9.9 24,-9.9 C19.5,-9.9 14.4,-5.3 13.7,-4.9 C12.7,-4.3 11.5,-4 10.4,-4 C9.6,-4 9,-4.4 9,-5.6 C9,-10.5 13.2,-16.5 14.2,-19.2 C14.9,-21.2 16.6,-23.3 16.6,-25.6 C16.6,-27.1 14.3,-27.2 13.8,-27.2 C10,-27.2 5.2,-13.9 4,-11.2 C-0.1,-2.2 -0.6,-0.4 -0.6,7.3 C-0.6,16.6 3.2,25.6 11.7,25.6 M15.2,16.7 C10.5,16.7 9.2,13.9 9.2,9.8 C9.2,2.7 15.8,-1.6 22.3,-1.6 C27.5,-1.6 28.2,2.4 28.2,5.2 C28.2,12.5 21.1,16.7 15.2,16.7"/>
<path class="TimeSig" transform="matrix(0.992,0,0,0.992,3694.52,407.28)" d="M2.4,23.6 C6.7,23 13.1,21.4 17.4,21.4 C20.2,21.4 22.8,21.8 25.3,22.8 C25.6,22.9 25.9,23 26.3,23 C29.4,23 32.6,20.9 32.6,17.1 C32.6,14.4 30.9,14.7 28.2,13.3 C27.7,13.1 27.1,13 26.4,13 C25.6,13 24.8,13.2 24.1,13.2 C21.9,13.2 21.4,11.9 21.4,10 C21.4,8.2 21.6,5.9 21.6,3.8 C21.6,1.8 21.4,0 21.4,-1.7 C21.4,-5.8 21.6,-3.2 22.4,-18 C22.5,-20.2 23.4,-20.4 23.4,-24.7 C23.4,-26.7 23.3,-27.7 22,-27.7 C21.4,-27.7 20.8,-26 20.2,-25.6 C19.6,-25.2 17.9,-24.9 17.4,-24.6 C3.4,-16.5 2.5,-15.7 2.5,-11.5 C2.5,-9.4 3,-8.1 5.2,-8.1 C7.5,-8.1 9.8,-10.9 10.7,-11.6 C11.2,-12 12.1,-12.1 12.7,-12.1 C15.2,-12.1 15.7,-10.5 15.7,-8.2 C15.7,-6.3 15.6,-4.2 15.6,-2.1 C15.6,2.3 15.9,5.8 15.9,7.8 C15.9,10.5 15.8,14.2 12.8,14.2 C5.7,14.2 -0.3,14.8 -0.3,22.5 C-0.3,23.7 -0.3,25.1 0.6,25.1 C1.9,25.1 1.6,23.7 2.4,23.6"/>
<path class="TimeSig" transform="matrix(0.992,0,0,0.992,3726.76,407.28)" d="M17.6,29 C20,25.1 23.8,18.1 25.4,13.9 C26.6,10.8 27.5,7.7 28.6,4.4 C29.2,2.6 29.3,0.6 30.1,-1.2 C31.2,-3.8 31.9,-7 31.9,-9.8 C31.9,-17.1 30.4,-24.1 19.8,-24.1 C12,-24.1 -0.6,-9.4 -0.6,-1.1 C-0.6,4.2 3.7,9.9 9.7,9.9 C12.8,9.9 13.8,7.8 16.1,7.8 C18,7.8 19.5,9.1 19.5,11.2 C19.5,12.8 16.6,16.4 15.2,19.1 C14.4,20.7 10.6,26.3 10.6,27.4 C10.6,28.7 12.5,29.9 14.7,29.9 C16.3,29.9 17,29.7 17.6,29 M10.3,0.5 C8.9,0.5 6.6,0.1 6.6,-4.1 C6.6,-8.4 12.1,-12 14.6,-13.7 C15.7,-14.5 17.6,-15 19.4,-15 C23.1,-15 25.8,-13.6 25.8,-9.7 C25.6,-7.6 21.6,-4.5 20.2,-3.4 C18.1,-1.8 13.4,0.5 10.3,0.5"/>
<path class="TimeSig" transform="matrix(0.992,0,0,0.992,3690.27,461.189)" d="M12.4,18.1 C15.7,18.1 16.3,19 20,21.9 C22.8,24.2 25.5,25 27.9,25 C30.1,25 33.4,24.9 35.5,19.5 C35.9,18.5 38.2,14.7 38.2,13.5 C38.2,11.3 38.1,9.2 35.3,9.2 C34.2,9.2 33.7,11.3 33.2,12.3 C32.6,13.5 31.3,14.9 29.7,14.9 C28.3,14.9 27.1,13.2 25.7,12.3 C24.5,11.6 22.5,11.1 21.6,10.4 C20.1,9.2 19,8.8 19,7.5 C19,5.4 22.9,4.7 24.9,3.2 C30.2,-0.8 34.2,-6.5 34.2,-14.1 C34.2,-21.6 27.3,-25.6 23,-25.6 C18.1,-25.6 13.9,-23.5 10.7,-19.4 C9.6,-17.9 7.8,-16.3 7.7,-13.5 C7.7,-12.8 7.2,-12.1 7.2,-11.3 C7.2,-10.6 8.1,-9.1 9.4,-9.1 C13.4,-9.1 13.2,-13.2 16.2,-14.9 C16.9,-15.3 18,-15.3 19.2,-15.3 C23.1,-15.3 27.6,-13.4 27.6,-7.9 C27.6,-3.8 22,-2.1 16.6,1.7 C12.1,4.9 7.2,8.9 4.5,12.8 C2.7,15.4 -0.6,16.1 -0.6,22.1 C-0.6,23.5 -0.5,25.2 1.5,25.2 C2.4,25.2 3.2,25.1 3.2,24.1 L3.1,23.8 C3.1,20.7 9.5,18.1 12.4,18.1"/>
<path class="TimeSig" transform="matrix(0.992,0,0,0.992,3728.96,461.189)" d="M13.6,24.4 C17.5,24.2 23,20.4 26.9,15.6 C30.4,11.2 33.7,3.2 33.7,-2.6 C33.7,-9.1 32.8,-15.2 29.4,-20.8 C26.6,-24.7 24.1,-26 19.5,-26 C17.5,-26 15.9,-26 14.2,-25.3 C8.1,-22.7 2.5,-13.2 0.7,0.2 C0.6,0.6 0.6,1.1 0.6,1.6 C0.6,6 1.7,12.8 3.1,17.8 C4.4,22.5 8.6,24.4 13.1,24.4 L13.6,24.4 M12.3,13.4 C10.1,12.2 9.2,1.6 9.2,1.6 C9.2,-3 11.3,-16 17.7,-16 C23,-16 24,-13.2 25.5,-9 C26.1,-7.5 26.3,-5.5 26.3,-4.1 C26.3,3.7 23.2,13.7 13.9,13.7 C13.2,13.7 12.7,13.6 12.3,13.4"/>
<path class="TimeSig" transform="matrix(0.992,0,0,0.992,4090.92,409.613)" d="M12.4,18.1 C15.7,18.1 16.3,19 20,21.9 C22.8,24.2 25.5,25 27.9,25 C30.1,25 33.4,24.9 35.5,19.5 C35.9,18.5 38.2,14.7 38.2,13.5 C38.2,11.3 38.1,9.2 35.3,9.2 C34.2,9.2 33.7,11.3 33.2,12.3 C32.6,13.5 31.3,14.9 29.7,14.9 C28.3,14.9 27.1,13.2 25.7,12.3 C24.5,11.6 22.5,11.1 21.6,10.4 C20.1,9.2 19,8.8 19,7.5 C19,5.4 22.9,4.7 24.9,3.2 C30.2,-0.8 34.2,-6.5 34.2,-14.1 C34.2,-21.6 27.3,-25.6 23,-25.6 C18.1,-25.6 13.9,-23.5 10.7,-19.4 C9.6,-17.9 7.8,-16.3 7.7,-13.5 C7.7,-12.8 7.2,-12.1 7.2,-11.3 C7.2,-10.6 8.1,-9.1 9.4,-9.1 C13.4,-9.1 13.2,-13.2 16.2,-14.9 C16.9,-15.3 18,-15.3 19.2,-15.3 C23.1,-15.3 27.6,-13.4 27.6,-7.9 C27.6,-3.8 22,-2.1 16.6,1.7 C12.1,4.9 7.2,8.9 4.5,12.8 C2.7,15.4 -0.6,16.1 -0.6,22.1 C-0.6,23.5 -0.5,25.2 1.5,25.2 C2.4,25.2 3.2,25.1 3.2,24.1 L3.1,23.8 C3.1,20.7 9.5,18.1 12.4,18.1"/>
<path class="TimeSig" transform="matrix(0.992,0,0,0.992,4129.61,409.613)" d="M2.4,23.6 C6.7,23 13.1,21.4 17.4,21.4 C20.2,21.4 22.8,21.8 25.3,22.8 C25.6,22.9 25.9,23 26.3,23 C29.4,23 32.6,20.9 32.6,17.1 C32.6,14.4 30.9,14.7 28.2,13.3 C27.7,13.1 27.1,13 26.4,13 C25.6,13 24.8,13.2 24.1,13.2 C21.9,13.2 21.4,11.9 21.4,10 C21.4,8.2 21.6,5.9 21.6,3.8 C21.6,1.8 21.4,0 21.4,-1.7 C21.4,-5.8 21.6,-3.2 22.4,-18 C22.5,-20.2 23.4,-20.4 23.4,-24.7 C23.4,-26.7 23.3,-27.7 22,-27.7 C21.4,-27.7 20.8,-26 20.2,-25.6 C19.6,-25.2 17.9,-24.9 17.4,-24.6 C3.4,-16.5 2.5,-15.7 2.5,-11.5 C2.5,-9.4 3,-8.1 5.2,-8.1 C7.5,-8.1 9.8,-10.9 10.7,-11.6 C11.2,-12 12.1,-12.1 12.7,-12.1 C15.2,-12.1 15.7,-10.5 15.7,-8.2 C15.7,-6.3 15.6,-4.2 15.6,-2.1 C15.6,2.3 15.9,5.8 15.9,7.8 C15.9,10.5 15.8,14.2 12.8,14.2 C5.7,14.2 -0.3,14.8 -0.3,22.5 C-0.3,23.7 -0.3,25.1 0.6,25.1 C1.9,25.1 1.6,23.7 2.4,23.6"/>
<path class="TimeSig" transform="matrix(0.992,0,0,0.992,4088.16,460.949)" d="M12.4,18.1 C15.7,18.1 16.3,19 20,21.9 C22.8,24.2 25.5,25 27.9,25 C30.1,25 33.4,24.9 35.5,19.5 C35.9,18.5 38.2,14.7 38.2,13.5 C38.2,11.3 38.1,9.2 35.3,9.2 C34.2,9.2 33.7,11.3 33.2,12.3 C32.6,13.5 31.3,14.9 29.7,14.9 C28.3,14.9 27.1,13.2 25.7,12.3 C24.5,11.6 22.5,11.1 21.6,10.4 C20.1,9.2 19,8.8 19,7.5 C19,5.4 22.9,4.7 24.9,3.2 C30.2,-0.8 34.2,-6.5 34.2,-14.1 C34.2,-21.6 27.3,-25.6 23,-25.6 C18.1,-25.6 13.9,-23.5 10.7,-19.4 C9.6,-17.9 7.8,-16.3 7.7,-13.5 C7.7,-12.8 7.2,-12.1 7.2,-11.3 C7.2,-10.6 8.1,-9.1 9.4,-9.1 C13.4,-9.1 13.2,-13.2 16.2,-14.9 C16.9,-15.3 18,-15.3 19.2,-15.3 C23.1,-15.3 27.6,-13.4 27.6,-7.9 C27.6,-3.8 22,-2.1 16.6,1.7 C12.1,4.9 7.2,8.9 4.5,12.8 C2.7,15.4 -0.6,16.1 -0.6,22.1 C-0.6,23.5 -0.5,25.2 1.5,25.2 C2.4,25.2 3.2,25.1 3.2,24.1 L3.1,23.8 C3.1,20.7 9.5,18.1 12.4,18.1"/>
<path class="TimeSig" transform="matrix(0.992,0,0,0.992,4126.85,460.949)" d="M12.4,18.1 C15.7,18.1 16.3,19 20,21.9 C22.8,24.2 25.5,25 27.9,25 C30.1,25 33.4,24.9 35.5,19.5 C35.9,18.5 38.2,14.7 38.2,13.5 C38.2,11.3 38.1,9.2 35.3,9.2 C34.2,9.2 33.7,11.3 33.2,12.3 C32.6,13.5 31.3,14.9 29.7,14.9 C28.3,14.9 27.1,13.2 25.7,12.3 C24.5,11.6 22.5,11.1 21.6,10.4 C20.1,9.2 19,8.8 19,7.5 C19,5.4 22.9,4.7 24.9,3.2 C30.2,-0.8 34.2,-6.5 34.2,-14.1 C34.2,-21.6 27.3,-25.6 23,-25.6 C18.1,-25.6 13.9,-23.5 10.7,-19.4 C9.6,-17.9 7.8,-16.3 7.7,-13.5 C7.7,-12.8 7.2,-12.1 7.2,-11.3 C7.2,-10.6 8.1,-9.1 9.4,-9.1 C13.4,-9.1 13.2,-13.2 16.2,-14.9 C16.9,-15.3 18,-15.3 19.2,-15.3 C23.1,-15.3 27.6,-13.4 27.6,-7.9 C27.6,-3.8 22,-2.1 16.6,1.7 C12.1,4.9 7.2,8.9 4.5,12.8 C2.7,15.4 -0.6,16.1 -0.6,22.1 C-0.6,23.5 -0.5,25.2 1.5,25.2 C2.4,25.2 3.2,25.1 3.2,24.1 L3.1,23.8 C3.1,20.7 9.5,18.1 12.4,18.1"/>
<path class="Rest" transform="matrix(0.992,0,0,0.992,2744.57,386.2)" d="M0,14.4 C5.1,14.4 10.9,14.7 16.8,14.7 C22.2,14.7 27.8,14.6 33,14.4 C33.7,12.2 34,9.4 34,6.7 C34,3.6 33.6,2 33,-0.4 C26.4,-0.4 17.8,0.2 10.5,0.2 C7.7,0.2 5.3,0 3.2,0 C1.3,0 1.2,0.5 1,2.3 C0.6,5.8 0.4,9.7 0,14.4"/>
<path class="Rest" transform="matrix(0.992,0,0,0.992,1201.28,386.2)" d="M0,14.4 C5.1,14.4 10.9,14.7 16.8,14.7 C22.2,14.7 27.8,14.6 33,14.4 C33.7,12.2 34,9.4 34,6.7 C34,3.6 33.6,2 33,-0.4 C26.4,-0.4 17.8,0.2 10.5,0.2 C7.7,0.2 5.3,0 3.2,0 C1.3,0 1.2,0.5 1,2.3 C0.6,5.8 0.4,9.7 0,14.4"/>
<path class="Rest" transform="matrix(0.992,0,0,0.992,3898.45,386.2)" d="M0,14.4 C5.1,14.4 10.9,14.7 16.8,14.7 C22.2,14.7 27.8,14.6 33,14.4 C33.7,12.2 34,9.4 34,6.7 C34,3.6 33.6,2 33,-0.4 C26.4,-0.4 17.8,0.2 10.5,0.2 C7.7,0.2 5.3,0 3.2,0 C1.3,0 1.2,0.5 1,2.3 C0.6,5.8 0.4,9.7 0,14.4"/>
<path class="Rest" transform="matrix(0.992,0,0,0.992,4309.01,386.2)" d="M0,14.4 C5.1,14.4 10.9,14.7 16.8,14.7 C22.2,14.7 27.8,14.6 33,14.4 C33.7,12.2 34,9.4 34,6.7 C34,3.6 33.6,2 33,-0.4 C26.4,-0.4 17.8,0.2 10.5,0.2 C7.7,0.2 5.3,0 3.2,0 C1.3,0 1.2,0.5 1,2.3 C0.6,5.8 0.4,9.7 0,14.4"/>
<path class="Rest" transform="matrix(0.992,0,0,0.992,1541.16,386.2)" d="M0,14.4 C5.1,14.4 10.9,14.7 16.8,14.7 C22.2,14.7 27.8,14.6 33,14.4 C33.7,12.2 34,9.4 34,6.7 C34,3.6 33.6,2 33,-0.4 C26.4,-0.4 17.8,0.2 10.5,0.2 C7.7,0.2 5.3,0 3.2,0 C1.3,0 1.2,0.5 1,2.3 C0.6,5.8 0.4,9.7 0,14.4"/>
<path class="Rest" transform="matrix(0.992,0,0,0.992,870.589,386.2)" d="M0,14.4 C5.1,14.4 10.9,14.7 16.8,14.7 C22.2,14.7 27.8,14.6 33,14.4 C33.7,12.2 34,9.4 34,6.7 C34,3.6 33.6,2 33,-0.4 C26.4,-0.4 17.8,0.2 10.5,0.2 C7.7,0.2 5.3,0 3.2,0 C1.3,0 1.2,0.5 1,2.3 C0.6,5.8 0.4,9.7 0,14.4"/>
<path class="Rest" transform="matrix(0.992,0,0,0.992,3509.14,386.2)" d="M0,14.4 C5.1,14.4 10.9,14.7 16.8,14.7 C22.2,14.7 27.8,14.6 33,14.4 C33.7,12.2 34,9.4 34,6.7 C34,3.6 33.6,2 33,-0.4 C26.4,-0.4 17.8,0.2 10.5,0.2 C7.7,0.2 5.3,0 3.2,0 C1.3,0 1.2,0.5 1,2.3 C0.6,5.8 0.4,9.7 0,14.4"/>
<path class="Rest" transform="matrix(0.992,0,0,0.992,4666.38,411)" d="M0,14.4 C5.1,14.4 10.9,14.7 16.8,14.7 C22.2,14.7 27.8,14.6 33,14.4 C33.7,12.2 34,9.4 34,6.7 C34,3.6 33.6,2 33,-0.4 C26.4,-0.4 17.8,0.2 10.5,0.2 C7.7,0.2 5.3,0 3.2,0 C1.3,0 1.2,0.5 1,2.3 C0.6,5.8 0.4,9.7 0,14.4"/>
<path class="Rest" transform="matrix(0.992,0,0,0.992,1905.78,386.2)" d="M0,14.4 C5.1,14.4 10.9,14.7 16.8,14.7 C22.2,14.7 27.8,14.6 33,14.4 C33.7,12.2 34,9.4 34,6.7 C34,3.6 33.6,2 33,-0.4 C26.4,-0.4 17.8,0.2 10.5,0.2 C7.7,0.2 5.3,0 3.2,0 C1.3,0 1.2,0.5 1,2.3 C0.6,5.8 0.4,9.7 0,14.4"/>
<path class="Rest" transform="matrix(0.992,0,0,0.992,583.851,386.2)" d="M0,14.4 C5.1,14.4 10.9,14.7 16.8,14.7 C22.2,14.7 27.8,14.6 33,14.4 C33.7,12.2 34,9.4 34,6.7 C34,3.6 33.6,2 33,-0.4 C26.4,-0.4 17.8,0.2 10.5,0.2 C7.7,0.2 5.3,0 3.2,0 C1.3,0 1.2,0.5 1,2.3 C0.6,5.8 0.4,9.7 0,14.4"/>
<path class="Rest" transform="matrix(0.992,0,0,0.992,3144.86,386.2)" d="M0,14.4 C5.1,14.4 10.9,14.7 16.8,14.7 C22.2,14.7 27.8,14.6 33,14.4 C33.7,12.2 34,9.4 34,6.7 C34,3.6 33.6,2 33,-0.4 C26.4,-0.4 17.8,0.2 10.5,0.2 C7.7,0.2 5.3,0 3.2,0 C1.3,0 1.2,0.5 1,2.3 C0.6,5.8 0.4,9.7 0,14.4"/>
<path class="Rest" transform="matrix(0.992,0,0,0.992,5002.52,411)" d="M0,14.4 C5.1,14.4 10.9,14.7 16.8,14.7 C22.2,14.7 27.8,14.6 33,14.4 C33.7,12.2 34,9.4 34,6.7 C34,3.6 33.6,2 33,-0.4 C26.4,-0.4 17.8,0.2 10.5,0.2 C7.7,0.2 5.3,0 3.2,0 C1.3,0 1.2,0.5 1,2.3 C0.6,5.8 0.4,9.7 0,14.4"/>
<path class="Rest" transform="matrix(0.992,0,0,0.992,2309.35,386.2)" d="M0,14.4 C5.1,14.4 10.9,14.7 16.8,14.7 C22.2,14.7 27.8,14.6 33,14.4 C33.7,12.2 34,9.4 34,6.7 C34,3.6 33.6,2 33,-0.4 C26.4,-0.4 17.8,0.2 10.5,0.2 C7.7,0.2 5.3,0 3.2,0 C1.3,0 1.2,0.5 1,2.3 C0.6,5.8 0.4,9.7 0,14.4"/>
<polyline class="Bracket" fill="none" stroke="#000000" stroke-width="12.40" stroke-linejoin="bevel" points="319.24,373.8 319.24,497.8" />
<path class="Bracket" transform="matrix(0.992,0,0,0.992,313.04,380)" d="M0,0 L12.5,0 C28.5,-3 42.8,-10.4 46.8,-27.1 C46.9,-27.5 46.9,-27.8 46.9,-28.1 C46.9,-28.9 46.6,-29.3 46.1,-29.5 C45.2,-29.5 44.1,-28.8 43.6,-28.1 C42.6,-27 30,-13.8 10.9,-12.4 L0.8,-12.4 C0.2,-12.4 0,-12.3 0,-11.7 L0,0 "/>
<path class="Bracket" transform="matrix(0.992,0,0,0.992,313.04,491.6)" d="M0,11.7 C0,12.3 0.2,12.4 0.8,12.4 L10.9,12.4 C30,13.8 42.6,27 43.6,28.1 C44.1,28.8 45.2,29.5 46.1,29.5 C46.6,29.3 46.9,28.9 46.9,28.1 C46.9,27.8 46.9,27.5 46.8,27.1 C42.8,10.4 28.5,3 12.5,0 L0,0 L0,11.7 "/>
</svg>
