<?xml version="1.0" encoding="UTF-8" standalone="no"?>
<svg width="225.425mm" height="150.283mm"
 viewBox="0 0 284 426"
 xmlns="http://www.w3.org/2000/svg" xmlns:xlink="http://www.w3.org/1999/xlink" version="1.2" baseProfile="tiny">
<title>01 - Full score - Ardor - 001 (1)</title>
<desc>Dorico</desc>
<defs>
</defs>
<g fill="none" stroke="black" stroke-width="1" fill-rule="evenodd" stroke-linecap="square" stroke-linejoin="bevel" >

<g fill="none" stroke="#000000" stroke-opacity="1" stroke-width="0.644937" stroke-linecap="butt" stroke-linejoin="miter" stroke-miterlimit="2" transform="matrix(1,0,0,1,0.267717,0.401575)"
font-family=".AppleSystemUIFont" font-size="13" font-weight="400" font-style="normal" 
>
<polyline fill="none" vector-effect="none" points="118.755,336.17 247.745,336.17 " />
<polyline fill="none" vector-effect="none" points="118.755,331.209 247.745,331.209 " />
<polyline fill="none" vector-effect="none" points="118.755,326.248 247.745,326.248 " />
<polyline fill="none" vector-effect="none" points="118.755,291.52 247.745,291.52 " />
<polyline fill="none" vector-effect="none" points="118.755,281.598 247.745,281.598 " />
<polyline fill="none" vector-effect="none" points="118.755,276.637 247.745,276.637 " />
<polyline fill="none" vector-effect="none" points="118.755,286.559 247.745,286.559 " />
<polyline fill="none" vector-effect="none" points="118.755,271.676 247.745,271.676 " />
<polyline fill="none" vector-effect="none" points="118.755,197.836 247.745,197.836 " />
<polyline fill="none" vector-effect="none" points="118.755,192.875 247.745,192.875 " />
<polyline fill="none" vector-effect="none" points="118.755,182.953 247.745,182.953 " />
<polyline fill="none" vector-effect="none" points="118.755,341.131 247.745,341.131 " />
<polyline fill="none" vector-effect="none" points="118.755,177.992 247.745,177.992 " />
<polyline fill="none" vector-effect="none" points="118.755,129.027 247.745,129.027 " />
<polyline fill="none" vector-effect="none" points="118.755,133.988 247.745,133.988 " />
<polyline fill="none" vector-effect="none" points="118.755,138.949 247.745,138.949 " />
<polyline fill="none" vector-effect="none" points="118.755,124.066 247.745,124.066 " />
<polyline fill="none" vector-effect="none" points="118.755,143.91 247.745,143.91 " />
<polyline fill="none" vector-effect="none" points="118.755,321.287 247.745,321.287 " />
<polyline fill="none" vector-effect="none" points="118.755,187.914 247.745,187.914 " />
</g>

<g fill="none" stroke="#000000" stroke-opacity="1" stroke-width="0.793768" stroke-linecap="butt" stroke-linejoin="miter" stroke-miterlimit="2" transform="matrix(1,0,0,1,0.267717,0.401575)"
font-family=".AppleSystemUIFont" font-size="13" font-weight="400" font-style="normal" 
>
<polyline fill="none" vector-effect="none" points="196.644,123.744 196.644,198.159 " />
<polyline fill="none" vector-effect="none" points="196.644,271.354 196.644,341.453 " />
<polyline fill="none" vector-effect="none" points="242.387,123.744 242.387,198.159 " />
</g>

<g fill="none" stroke="#000000" stroke-opacity="1" stroke-width="2.48053" stroke-linecap="butt" stroke-linejoin="miter" stroke-miterlimit="2" transform="matrix(1,0,0,1,0.267717,0.401575)"
font-family=".AppleSystemUIFont" font-size="13" font-weight="400" font-style="normal" 
>
<polyline fill="none" vector-effect="none" points="246.505,123.744 246.505,198.159 " />
</g>

<g fill="none" stroke="#000000" stroke-opacity="1" stroke-width="0.793768" stroke-linecap="butt" stroke-linejoin="miter" stroke-miterlimit="2" transform="matrix(1,0,0,1,0.267717,0.401575)"
font-family=".AppleSystemUIFont" font-size="13" font-weight="400" font-style="normal" 
>
<polyline fill="none" vector-effect="none" points="242.387,271.354 242.387,341.453 " />
</g>

<g fill="none" stroke="#000000" stroke-opacity="1" stroke-width="2.48053" stroke-linecap="butt" stroke-linejoin="miter" stroke-miterlimit="2" transform="matrix(1,0,0,1,0.267717,0.401575)"
font-family=".AppleSystemUIFont" font-size="13" font-weight="400" font-style="normal" 
>
<polyline fill="none" vector-effect="none" points="246.505,271.354 246.505,341.453 " />
</g>

<g fill="none" stroke="#000000" stroke-opacity="1" stroke-width="0.793768" stroke-linecap="butt" stroke-linejoin="miter" stroke-miterlimit="2" transform="matrix(1,0,0,1,0.267717,0.401575)"
font-family=".AppleSystemUIFont" font-size="13" font-weight="400" font-style="normal" 
>
<polyline fill="none" vector-effect="none" points="118.358,123.744 118.358,341.453 " />
</g>

<g fill="none" stroke="#000000" stroke-opacity="1" stroke-width="2.48053" stroke-linecap="butt" stroke-linejoin="miter" stroke-miterlimit="2" transform="matrix(1,0,0,1,0.267717,0.401575)"
font-family=".AppleSystemUIFont" font-size="13" font-weight="400" font-style="normal" 
>
<polyline fill="none" vector-effect="none" points="115.034,121.585 115.034,200.317 " />
</g>

<g fill="none" stroke="#000000" stroke-opacity="1" stroke-width="1" stroke-linecap="square" stroke-linejoin="bevel" transform="matrix(0.5,0,0,0.5,170.545,129.429)"
font-family="Sebastian" font-size="40" font-weight="400" font-style="normal" 
>
</g>

<g fill="#000000" fill-opacity="1" stroke="none" transform="matrix(0.5,0,0,0.5,170.545,129.429)"
font-family="Sebastian" font-size="40" font-weight="400" font-style="normal" 
>
<path vector-effect="none" fill-rule="nonzero" d="M14,5.84 L14,1.08 C14,0.72 14.4,0.48 14.6,0.48 L14.6,-0.04 L-0.6,-0.04 L-0.6,0.48 C-0.4,0.48 0,0.72 0,1.08 L0,5.84 L14,5.84"/>
</g>

<g fill="none" stroke="#000000" stroke-opacity="1" stroke-width="1" stroke-linecap="square" stroke-linejoin="bevel" transform="matrix(0.5,0,0,0.5,170.545,129.429)"
font-family="Sebastian" font-size="40" font-weight="400" font-style="normal" 
>
<text fill="#000000" fill-opacity="1" stroke="none" xml:space="preserve" x="0" y="0" font-family=".AppleSystemUIFont" font-size="13" font-weight="400" font-style="normal" 
 ></text>
</g>

<g fill="none" stroke="#000000" stroke-opacity="1" stroke-width="1" stroke-linecap="square" stroke-linejoin="bevel" transform="matrix(0.5,0,0,0.5,215.886,129.429)"
font-family="Sebastian" font-size="40" font-weight="400" font-style="normal" 
>
</g>

<g fill="#000000" fill-opacity="1" stroke="none" transform="matrix(0.5,0,0,0.5,215.886,129.429)"
font-family="Sebastian" font-size="40" font-weight="400" font-style="normal" 
>
<path vector-effect="none" fill-rule="nonzero" d="M14,5.84 L14,1.08 C14,0.72 14.4,0.48 14.6,0.48 L14.6,-0.04 L-0.6,-0.04 L-0.6,0.48 C-0.4,0.48 0,0.72 0,1.08 L0,5.84 L14,5.84"/>
</g>

<g fill="none" stroke="#000000" stroke-opacity="1" stroke-width="1" stroke-linecap="square" stroke-linejoin="bevel" transform="matrix(0.5,0,0,0.5,215.886,129.429)"
font-family="Sebastian" font-size="40" font-weight="400" font-style="normal" 
>
<text fill="#000000" fill-opacity="1" stroke="none" xml:space="preserve" x="0" y="0" font-family=".AppleSystemUIFont" font-size="13" font-weight="400" font-style="normal" 
 ></text>
</g>

<g fill="none" stroke="#000000" stroke-opacity="1" stroke-width="1" stroke-linecap="square" stroke-linejoin="bevel" transform="matrix(0.5,0,0,0.5,170.545,183.355)"
font-family="Sebastian" font-size="40" font-weight="400" font-style="normal" 
>
</g>

<g fill="#000000" fill-opacity="1" stroke="none" transform="matrix(0.5,0,0,0.5,170.545,183.355)"
font-family="Sebastian" font-size="40" font-weight="400" font-style="normal" 
>
<path vector-effect="none" fill-rule="nonzero" d="M14,5.84 L14,1.08 C14,0.72 14.4,0.48 14.6,0.48 L14.6,-0.04 L-0.6,-0.04 L-0.6,0.48 C-0.4,0.48 0,0.72 0,1.08 L0,5.84 L14,5.84"/>
</g>

<g fill="none" stroke="#000000" stroke-opacity="1" stroke-width="1" stroke-linecap="square" stroke-linejoin="bevel" transform="matrix(0.5,0,0,0.5,170.545,183.355)"
font-family="Sebastian" font-size="40" font-weight="400" font-style="normal" 
>
<text fill="#000000" fill-opacity="1" stroke="none" xml:space="preserve" x="0" y="0" font-family=".AppleSystemUIFont" font-size="13" font-weight="400" font-style="normal" 
 ></text>
</g>

<g fill="none" stroke="#000000" stroke-opacity="1" stroke-width="1" stroke-linecap="square" stroke-linejoin="bevel" transform="matrix(0.5,0,0,0.5,215.886,183.355)"
font-family="Sebastian" font-size="40" font-weight="400" font-style="normal" 
>
</g>

<g fill="#000000" fill-opacity="1" stroke="none" transform="matrix(0.5,0,0,0.5,215.886,183.355)"
font-family="Sebastian" font-size="40" font-weight="400" font-style="normal" 
>
<path vector-effect="none" fill-rule="nonzero" d="M14,5.84 L14,1.08 C14,0.72 14.4,0.48 14.6,0.48 L14.6,-0.04 L-0.6,-0.04 L-0.6,0.48 C-0.4,0.48 0,0.72 0,1.08 L0,5.84 L14,5.84"/>
</g>

<g fill="none" stroke="#000000" stroke-opacity="1" stroke-width="1" stroke-linecap="square" stroke-linejoin="bevel" transform="matrix(0.5,0,0,0.5,215.886,183.355)"
font-family="Sebastian" font-size="40" font-weight="400" font-style="normal" 
>
<text fill="#000000" fill-opacity="1" stroke="none" xml:space="preserve" x="0" y="0" font-family=".AppleSystemUIFont" font-size="13" font-weight="400" font-style="normal" 
 ></text>
</g>

<g fill="none" stroke="#000000" stroke-opacity="1" stroke-width="1" stroke-linecap="square" stroke-linejoin="bevel" transform="matrix(0.5,0,0,0.5,170.545,277.039)"
font-family="Sebastian" font-size="40" font-weight="400" font-style="normal" 
>
</g>

<g fill="#000000" fill-opacity="1" stroke="none" transform="matrix(0.5,0,0,0.5,170.545,277.039)"
font-family="Sebastian" font-size="40" font-weight="400" font-style="normal" 
>
<path vector-effect="none" fill-rule="nonzero" d="M14,5.84 L14,1.08 C14,0.72 14.4,0.48 14.6,0.48 L14.6,-0.04 L-0.6,-0.04 L-0.6,0.48 C-0.4,0.48 0,0.72 0,1.08 L0,5.84 L14,5.84"/>
</g>

<g fill="none" stroke="#000000" stroke-opacity="1" stroke-width="1" stroke-linecap="square" stroke-linejoin="bevel" transform="matrix(0.5,0,0,0.5,170.545,277.039)"
font-family="Sebastian" font-size="40" font-weight="400" font-style="normal" 
>
<text fill="#000000" fill-opacity="1" stroke="none" xml:space="preserve" x="0" y="0" font-family=".AppleSystemUIFont" font-size="13" font-weight="400" font-style="normal" 
 ></text>
</g>

<g fill="none" stroke="#000000" stroke-opacity="1" stroke-width="1" stroke-linecap="square" stroke-linejoin="bevel" transform="matrix(0.5,0,0,0.5,215.886,277.039)"
font-family="Sebastian" font-size="40" font-weight="400" font-style="normal" 
>
</g>

<g fill="#000000" fill-opacity="1" stroke="none" transform="matrix(0.5,0,0,0.5,215.886,277.039)"
font-family="Sebastian" font-size="40" font-weight="400" font-style="normal" 
>
<path vector-effect="none" fill-rule="nonzero" d="M14,5.84 L14,1.08 C14,0.72 14.4,0.48 14.6,0.48 L14.6,-0.04 L-0.6,-0.04 L-0.6,0.48 C-0.4,0.48 0,0.72 0,1.08 L0,5.84 L14,5.84"/>
</g>

<g fill="none" stroke="#000000" stroke-opacity="1" stroke-width="1" stroke-linecap="square" stroke-linejoin="bevel" transform="matrix(0.5,0,0,0.5,215.886,277.039)"
font-family="Sebastian" font-size="40" font-weight="400" font-style="normal" 
>
<text fill="#000000" fill-opacity="1" stroke="none" xml:space="preserve" x="0" y="0" font-family=".AppleSystemUIFont" font-size="13" font-weight="400" font-style="normal" 
 ></text>
</g>

<g fill="none" stroke="#000000" stroke-opacity="1" stroke-width="1" stroke-linecap="square" stroke-linejoin="bevel" transform="matrix(0.5,0,0,0.5,170.545,326.649)"
font-family="Sebastian" font-size="40" font-weight="400" font-style="normal" 
>
</g>

<g fill="#000000" fill-opacity="1" stroke="none" transform="matrix(0.5,0,0,0.5,170.545,326.649)"
font-family="Sebastian" font-size="40" font-weight="400" font-style="normal" 
>
<path vector-effect="none" fill-rule="nonzero" d="M14,5.84 L14,1.08 C14,0.72 14.4,0.48 14.6,0.48 L14.6,-0.04 L-0.6,-0.04 L-0.6,0.48 C-0.4,0.48 0,0.72 0,1.08 L0,5.84 L14,5.84"/>
</g>

<g fill="none" stroke="#000000" stroke-opacity="1" stroke-width="1" stroke-linecap="square" stroke-linejoin="bevel" transform="matrix(0.5,0,0,0.5,170.545,326.649)"
font-family="Sebastian" font-size="40" font-weight="400" font-style="normal" 
>
<text fill="#000000" fill-opacity="1" stroke="none" xml:space="preserve" x="0" y="0" font-family=".AppleSystemUIFont" font-size="13" font-weight="400" font-style="normal" 
 ></text>
</g>

<g fill="none" stroke="#000000" stroke-opacity="1" stroke-width="1" stroke-linecap="square" stroke-linejoin="bevel" transform="matrix(0.5,0,0,0.5,215.886,326.649)"
font-family="Sebastian" font-size="40" font-weight="400" font-style="normal" 
>
</g>

<g fill="#000000" fill-opacity="1" stroke="none" transform="matrix(0.5,0,0,0.5,215.886,326.649)"
font-family="Sebastian" font-size="40" font-weight="400" font-style="normal" 
>
<path vector-effect="none" fill-rule="nonzero" d="M14,5.84 L14,1.08 C14,0.72 14.4,0.48 14.6,0.48 L14.6,-0.04 L-0.6,-0.04 L-0.6,0.48 C-0.4,0.48 0,0.72 0,1.08 L0,5.84 L14,5.84"/>
</g>

<g fill="none" stroke="#000000" stroke-opacity="1" stroke-width="1" stroke-linecap="square" stroke-linejoin="bevel" transform="matrix(0.5,0,0,0.5,215.886,326.649)"
font-family="Sebastian" font-size="40" font-weight="400" font-style="normal" 
>
<text fill="#000000" fill-opacity="1" stroke="none" xml:space="preserve" x="0" y="0" font-family=".AppleSystemUIFont" font-size="13" font-weight="400" font-style="normal" 
 ></text>
</g>

<g fill="none" stroke="#000000" stroke-opacity="1" stroke-width="1" stroke-linecap="square" stroke-linejoin="bevel" transform="matrix(0.5,0,0,0.5,114.077,121.987)"
font-family="Sebastian" font-size="40" font-weight="400" font-style="normal" 
>
</g>

<g fill="#000000" fill-opacity="1" stroke="none" transform="matrix(0.5,0,0,0.5,114.077,121.987)"
font-family="Sebastian" font-size="40" font-weight="400" font-style="normal" 
>
<path vector-effect="none" fill-rule="nonzero" d="M-0.04,-2.64 C-0.04,-2.04 0,-0.72 0,0 L5,0 C5,0 4.96,-1.04 6.8,-1.6 C14.2,-3.88 15.76,-10.08 15.76,-10.88 C15.76,-10.96 15.68,-11 15.56,-11 C14.6,-11 10.32,-4.16 4.12,-4.12 C3.2,-4.12 1.68,-4.16 1,-4.16 C0.12,-4.16 -0.04,-3.88 -0.04,-2.64 "/>
</g>

<g fill="none" stroke="#000000" stroke-opacity="1" stroke-width="1" stroke-linecap="square" stroke-linejoin="bevel" transform="matrix(0.5,0,0,0.5,114.077,121.987)"
font-family="Sebastian" font-size="40" font-weight="400" font-style="normal" 
>
<text fill="#000000" fill-opacity="1" stroke="none" xml:space="preserve" x="0" y="0" font-family=".AppleSystemUIFont" font-size="13" font-weight="400" font-style="normal" 
 ></text>
</g>

<g fill="none" stroke="#000000" stroke-opacity="1" stroke-width="1" stroke-linecap="square" stroke-linejoin="bevel" transform="matrix(0.5,0,0,0.5,114.077,200.718)"
font-family="Sebastian" font-size="40" font-weight="400" font-style="normal" 
>
</g>

<g fill="#000000" fill-opacity="1" stroke="none" transform="matrix(0.5,0,0,0.5,114.077,200.718)"
font-family="Sebastian" font-size="40" font-weight="400" font-style="normal" 
>
<path vector-effect="none" fill-rule="nonzero" d="M-0.04,2.64 C-0.04,3.88 0.12,4.16 1,4.16 C1.68,4.16 3.2,4.12 4.12,4.12 C10.32,4.16 14.6,11 15.56,11 C15.68,11 15.76,10.96 15.76,10.88 C15.76,10.08 14.2,3.88 6.8,1.6 C4.96,1.04 5,0 5,0 L0,0 C0,0.72 -0.04,2.04 -0.04,2.64 "/>
</g>

<g fill="none" stroke="#000000" stroke-opacity="1" stroke-width="1" stroke-linecap="square" stroke-linejoin="bevel" transform="matrix(0.5,0,0,0.5,114.077,200.718)"
font-family="Sebastian" font-size="40" font-weight="400" font-style="normal" 
>
<text fill="#000000" fill-opacity="1" stroke="none" xml:space="preserve" x="0" y="0" font-family=".AppleSystemUIFont" font-size="13" font-weight="400" font-style="normal" 
 ></text>
</g>

<g fill="none" stroke="#000000" stroke-opacity="1" stroke-width="1" stroke-linecap="square" stroke-linejoin="bevel" transform="matrix(0.5,0,0,0.5,112.095,342.128)"
font-family="Sebastian" font-size="140" font-weight="400" font-style="normal" 
>
</g>

<g fill="#000000" fill-opacity="1" stroke="none" transform="matrix(0.5,0,0,0.5,112.095,342.128)"
font-family="Sebastian" font-size="140" font-weight="400" font-style="normal" 
>
<path vector-effect="none" fill-rule="nonzero" d="M0.84,-70 C2.66,-72.66 9.38,-78.12 9.38,-88.2 C9.38,-100.94 1.82,-113.82 1.82,-121.8 C1.82,-130.34 8.12,-138.32 8.4,-138.6 C8.54,-138.88 8.54,-139.16 8.26,-139.3 C8.12,-139.3 7.84,-139.3 7.7,-139.02 C7.56,-138.88 0,-131.32 0,-119.84 C0,-107.52 4.9,-98.84 4.9,-82.74 C4.9,-79.66 3.64,-74.76 0.14,-70.42 C-0.14,-70.28 -0.14,-69.86 0.14,-69.58 C3.64,-65.24 4.9,-60.34 4.9,-57.26 C4.9,-41.16 0,-32.48 0,-20.16 C0,-8.82 7.56,-1.12 7.7,-0.98 C7.84,-0.7 8.12,-0.56 8.26,-0.7 C8.54,-0.84 8.54,-1.12 8.4,-1.4 C8.12,-1.68 1.82,-9.66 1.82,-18.2 C1.82,-26.18 9.38,-39.06 9.38,-51.8 C9.38,-62.02 2.66,-67.34 0.84,-70 "/>
</g>

<g fill="none" stroke="#000000" stroke-opacity="1" stroke-width="1" stroke-linecap="square" stroke-linejoin="bevel" transform="matrix(0.5,0,0,0.5,112.095,342.128)"
font-family="Sebastian" font-size="140" font-weight="400" font-style="normal" 
>
<text fill="#000000" fill-opacity="1" stroke="none" xml:space="preserve" x="0" y="0" font-family=".AppleSystemUIFont" font-size="13" font-weight="400" font-style="normal" 
 ></text>
</g>

<g fill="none" stroke="#000000" stroke-opacity="1" stroke-width="1" stroke-linecap="square" stroke-linejoin="bevel" transform="matrix(0.5,0,0,0.5,121.503,326.649)"
font-family="Sebastian" font-size="40" font-weight="400" font-style="normal" 
>
</g>

<g fill="#000000" fill-opacity="1" stroke="none" transform="matrix(0.5,0,0,0.5,121.503,326.649)"
font-family="Sebastian" font-size="40" font-weight="400" font-style="normal" 
>
<path vector-effect="none" fill-rule="nonzero" d="M4.52,-5.24 C3.96,-5.24 3.4,-5.04 3.08,-4.92 L3.12,-4.96 C3.04,-4.96 3,-5.12 3,-5.28 L3,-5.32 C4,-7.4 6.16,-7.96 9.08,-7.96 C13.76,-7.96 15.96,-4.56 15.96,1.24 C15.96,13.16 10.4,20.64 0.64,23.12 C0.64,23.12 0.32,23.6 0.32,23.88 C0.36,24.08 0.84,24.56 0.84,24.56 C9.92,23.28 20.92,14.04 20.92,2 C20.92,-5.48 16.68,-10.12 9.8,-10.12 C3.96,-10.12 0,-6.6 0,-1.76 C0,2.16 2.12,4.32 4.52,4.32 C6.88,4.32 8.72,2.24 8.72,-0.44 C8.72,-3.12 6.88,-5.24 4.52,-5.24 M22.92,4.8 C22.92,6 23.88,6.96 25.08,6.96 C26.2,6.96 27.24,6 27.24,4.8 C27.24,3.6 26.2,2.64 25.08,2.64 C23.88,2.64 22.92,3.6 22.92,4.8 M22.92,-5.12 C22.92,-3.92 23.88,-2.96 25.08,-2.96 C26.2,-2.96 27.24,-3.92 27.24,-5.12 C27.24,-6.32 26.2,-7.28 25.08,-7.28 C23.88,-7.28 22.92,-6.32 22.92,-5.12 "/>
</g>

<g fill="none" stroke="#000000" stroke-opacity="1" stroke-width="1" stroke-linecap="square" stroke-linejoin="bevel" transform="matrix(0.5,0,0,0.5,121.503,326.649)"
font-family="Sebastian" font-size="40" font-weight="400" font-style="normal" 
>
<text fill="#000000" fill-opacity="1" stroke="none" xml:space="preserve" x="0" y="0" font-family=".AppleSystemUIFont" font-size="13" font-weight="400" font-style="normal" 
 ></text>
</g>

<g fill="none" stroke="#000000" stroke-opacity="1" stroke-width="1" stroke-linecap="square" stroke-linejoin="bevel" transform="matrix(0.5,0,0,0.5,121.503,286.961)"
font-family="Sebastian" font-size="40" font-weight="400" font-style="normal" 
>
</g>

<g fill="#000000" fill-opacity="1" stroke="none" transform="matrix(0.5,0,0,0.5,121.503,286.961)"
font-family="Sebastian" font-size="40" font-weight="400" font-style="normal" 
>
<path vector-effect="none" fill-rule="nonzero" d="M11.56,-15.2 C12.36,-15.2 12.88,-11.16 13.08,-10.16 C9.6,-9.08 6.88,-5.8 6.88,-2.08 C6.88,0.68 8.44,3.6 11.12,4.6 C11.16,4.6 11.44,4.68 11.48,4.68 C11.68,4.68 11.76,4.6 11.76,4.4 C11.76,4.12 9.72,1.64 9.72,-0.68 C9.72,-2.68 11.8,-5.08 13.64,-5.08 C13.84,-5.08 14.2,-4.92 14.24,-4.72 L16.8,7.32 C17,8.24 14.36,8.24 13.84,8.24 C7.8,8.24 2.92,4.92 2.92,-1.52 C2.92,-7.64 7.36,-11.28 11.4,-15.16 L11.56,-15.2 M12.68,-23.44 C12.6,-23.4 12.4,-23.32 12.32,-23.32 C12.16,-23.32 11.96,-23.44 11.84,-23.52 C11.52,-25.32 11.16,-27.08 11.16,-28.92 C11.16,-32.72 13.32,-40.44 18.12,-40.44 C19.52,-40.44 19.6,-36.64 19.6,-35.68 C19.6,-30.68 16.04,-26.76 12.68,-23.44 M23,0.72 C23,3.6 21.56,6 18.92,7.2 C18.84,7.24 18.36,6.96 18.36,6.88 L15.88,-4.72 C15.8,-5.04 16.36,-5.44 16.64,-5.44 C20.4,-5.44 23,-3.12 23,0.72 M13.24,-16.96 C18.24,-21.32 21.36,-27.2 21.36,-33.92 C21.36,-37.04 19.4,-44.4 16.76,-46.24 C16.68,-46.28 16.52,-46.32 16.44,-46.36 C15.52,-46 14.48,-44.72 13.84,-43.96 C10.96,-40.4 9.04,-35.92 9.04,-31.32 C9.04,-27.96 9.96,-24.72 10.68,-21.48 C5.52,-16.24 0,-10.84 0,-2.92 C0,4.68 6.28,9.76 13.6,9.76 C14.68,9.76 15.72,9.48 16.8,9.48 C17,9.48 17.32,9.64 17.4,9.84 C18.04,11.8 18.96,15.68 19,17.76 C19.08,21.68 16.52,25.12 12.56,25.12 C11.76,25.12 10.96,24.96 10.24,24.6 L10.08,24.28 L10.12,24.16 C12.08,23.68 13.56,21.8 13.56,19.76 C13.56,17.28 11.52,15.28 9.04,15.28 C6.52,15.28 4.56,17.52 4.56,20 C4.56,24.32 9.16,26.76 13,26.76 C17.68,26.76 20.84,22.32 20.6,17.84 C20.48,15.76 19.84,13.44 19.36,11.4 C19.2,10.76 18.92,10.08 18.92,9.4 C18.92,9.12 19.08,8.84 19.32,8.72 C20.08,8.28 20.92,7.96 21.64,7.48 C24.36,5.68 26.12,2.72 26.12,-0.56 C26.12,-6.36 21.32,-10.52 15.68,-10.52 C15.36,-10.52 15,-10.52 14.68,-10.48 L13.24,-16.96"/>
</g>

<g fill="none" stroke="#000000" stroke-opacity="1" stroke-width="1" stroke-linecap="square" stroke-linejoin="bevel" transform="matrix(0.5,0,0,0.5,121.503,286.961)"
font-family="Sebastian" font-size="40" font-weight="400" font-style="normal" 
>
<text fill="#000000" fill-opacity="1" stroke="none" xml:space="preserve" x="0" y="0" font-family=".AppleSystemUIFont" font-size="13" font-weight="400" font-style="normal" 
 ></text>
</g>

<g fill="none" stroke="#000000" stroke-opacity="1" stroke-width="1" stroke-linecap="square" stroke-linejoin="bevel" transform="matrix(0.5,0,0,0.5,121.503,183.355)"
font-family="Sebastian" font-size="40" font-weight="400" font-style="normal" 
>
</g>

<g fill="#000000" fill-opacity="1" stroke="none" transform="matrix(0.5,0,0,0.5,121.503,183.355)"
font-family="Sebastian" font-size="40" font-weight="400" font-style="normal" 
>
<path vector-effect="none" fill-rule="nonzero" d="M4.52,-5.24 C3.96,-5.24 3.4,-5.04 3.08,-4.92 L3.12,-4.96 C3.04,-4.96 3,-5.12 3,-5.28 L3,-5.32 C4,-7.4 6.16,-7.96 9.08,-7.96 C13.76,-7.96 15.96,-4.56 15.96,1.24 C15.96,13.16 10.4,20.64 0.64,23.12 C0.64,23.12 0.32,23.6 0.32,23.88 C0.36,24.08 0.84,24.56 0.84,24.56 C9.92,23.28 20.92,14.04 20.92,2 C20.92,-5.48 16.68,-10.12 9.8,-10.12 C3.96,-10.12 0,-6.6 0,-1.76 C0,2.16 2.12,4.32 4.52,4.32 C6.88,4.32 8.72,2.24 8.72,-0.44 C8.72,-3.12 6.88,-5.24 4.52,-5.24 M22.92,4.8 C22.92,6 23.88,6.96 25.08,6.96 C26.2,6.96 27.24,6 27.24,4.8 C27.24,3.6 26.2,2.64 25.08,2.64 C23.88,2.64 22.92,3.6 22.92,4.8 M22.92,-5.12 C22.92,-3.92 23.88,-2.96 25.08,-2.96 C26.2,-2.96 27.24,-3.92 27.24,-5.12 C27.24,-6.32 26.2,-7.28 25.08,-7.28 C23.88,-7.28 22.92,-6.32 22.92,-5.12 "/>
</g>

<g fill="none" stroke="#000000" stroke-opacity="1" stroke-width="1" stroke-linecap="square" stroke-linejoin="bevel" transform="matrix(0.5,0,0,0.5,121.503,183.355)"
font-family="Sebastian" font-size="40" font-weight="400" font-style="normal" 
>
<text fill="#000000" fill-opacity="1" stroke="none" xml:space="preserve" x="0" y="0" font-family=".AppleSystemUIFont" font-size="13" font-weight="400" font-style="normal" 
 ></text>
</g>

<g fill="none" stroke="#000000" stroke-opacity="1" stroke-width="1" stroke-linecap="square" stroke-linejoin="bevel" transform="matrix(0.5,0,0,0.5,121.503,139.351)"
font-family="Sebastian" font-size="40" font-weight="400" font-style="normal" 
>
</g>

<g fill="#000000" fill-opacity="1" stroke="none" transform="matrix(0.5,0,0,0.5,121.503,139.351)"
font-family="Sebastian" font-size="40" font-weight="400" font-style="normal" 
>
<path vector-effect="none" fill-rule="nonzero" d="M11.56,-15.2 C12.36,-15.2 12.88,-11.16 13.08,-10.16 C9.6,-9.08 6.88,-5.8 6.88,-2.08 C6.88,0.68 8.44,3.6 11.12,4.6 C11.16,4.6 11.44,4.68 11.48,4.68 C11.68,4.68 11.76,4.6 11.76,4.4 C11.76,4.12 9.72,1.64 9.72,-0.68 C9.72,-2.68 11.8,-5.08 13.64,-5.08 C13.84,-5.08 14.2,-4.92 14.24,-4.72 L16.8,7.32 C17,8.24 14.36,8.24 13.84,8.24 C7.8,8.24 2.92,4.92 2.92,-1.52 C2.92,-7.64 7.36,-11.28 11.4,-15.16 L11.56,-15.2 M12.68,-23.44 C12.6,-23.4 12.4,-23.32 12.32,-23.32 C12.16,-23.32 11.96,-23.44 11.84,-23.52 C11.52,-25.32 11.16,-27.08 11.16,-28.92 C11.16,-32.72 13.32,-40.44 18.12,-40.44 C19.52,-40.44 19.6,-36.64 19.6,-35.68 C19.6,-30.68 16.04,-26.76 12.68,-23.44 M23,0.72 C23,3.6 21.56,6 18.92,7.2 C18.84,7.24 18.36,6.96 18.36,6.88 L15.88,-4.72 C15.8,-5.04 16.36,-5.44 16.64,-5.44 C20.4,-5.44 23,-3.12 23,0.72 M13.24,-16.96 C18.24,-21.32 21.36,-27.2 21.36,-33.92 C21.36,-37.04 19.4,-44.4 16.76,-46.24 C16.68,-46.28 16.52,-46.32 16.44,-46.36 C15.52,-46 14.48,-44.72 13.84,-43.96 C10.96,-40.4 9.04,-35.92 9.04,-31.32 C9.04,-27.96 9.96,-24.72 10.68,-21.48 C5.52,-16.24 0,-10.84 0,-2.92 C0,4.68 6.28,9.76 13.6,9.76 C14.68,9.76 15.72,9.48 16.8,9.48 C17,9.48 17.32,9.64 17.4,9.84 C18.04,11.8 18.96,15.68 19,17.76 C19.08,21.68 16.52,25.12 12.56,25.12 C11.76,25.12 10.96,24.96 10.24,24.6 L10.08,24.28 L10.12,24.16 C12.08,23.68 13.56,21.8 13.56,19.76 C13.56,17.28 11.52,15.28 9.04,15.28 C6.52,15.28 4.56,17.52 4.56,20 C4.56,24.32 9.16,26.76 13,26.76 C17.68,26.76 20.84,22.32 20.6,17.84 C20.48,15.76 19.84,13.44 19.36,11.4 C19.2,10.76 18.92,10.08 18.92,9.4 C18.92,9.12 19.08,8.84 19.32,8.72 C20.08,8.28 20.92,7.96 21.64,7.48 C24.36,5.68 26.12,2.72 26.12,-0.56 C26.12,-6.36 21.32,-10.52 15.68,-10.52 C15.36,-10.52 15,-10.52 14.68,-10.48 L13.24,-16.96"/>
</g>

<g fill="none" stroke="#000000" stroke-opacity="1" stroke-width="1" stroke-linecap="square" stroke-linejoin="bevel" transform="matrix(0.5,0,0,0.5,121.503,139.351)"
font-family="Sebastian" font-size="40" font-weight="400" font-style="normal" 
>
<text fill="#000000" fill-opacity="1" stroke="none" xml:space="preserve" x="0" y="0" font-family=".AppleSystemUIFont" font-size="13" font-weight="400" font-style="normal" 
 ></text>
</g>

<g fill="none" stroke="#000000" stroke-opacity="1" stroke-width="1" stroke-linecap="square" stroke-linejoin="bevel" transform="matrix(0.5,0,0,0.5,139.566,326.61)"
font-family="Sebastian" font-size="40" font-weight="400" font-style="normal" 
>
<text fill="#000000" fill-opacity="1" stroke="none" xml:space="preserve" x="0" y="0" font-family="Sebastian" font-size="40" font-weight="400" font-style="normal" 
 ></text>
</g>

<g fill="none" stroke="#000000" stroke-opacity="1" stroke-width="1" stroke-linecap="square" stroke-linejoin="bevel" transform="matrix(0.5,0,0,0.5,139.566,336.61)"
font-family="Sebastian" font-size="40" font-weight="400" font-style="normal" 
>
<text fill="#000000" fill-opacity="1" stroke="none" xml:space="preserve" x="0" y="0" font-family="Sebastian" font-size="40" font-weight="400" font-style="normal" 
 ></text>
</g>

<g fill="none" stroke="#000000" stroke-opacity="1" stroke-width="1" stroke-linecap="square" stroke-linejoin="bevel" transform="matrix(0.5,0,0,0.5,139.566,277)"
font-family="Sebastian" font-size="40" font-weight="400" font-style="normal" 
>
<text fill="#000000" fill-opacity="1" stroke="none" xml:space="preserve" x="0" y="0" font-family="Sebastian" font-size="40" font-weight="400" font-style="normal" 
 ></text>
</g>

<g fill="none" stroke="#000000" stroke-opacity="1" stroke-width="1" stroke-linecap="square" stroke-linejoin="bevel" transform="matrix(0.5,0,0,0.5,139.566,287)"
font-family="Sebastian" font-size="40" font-weight="400" font-style="normal" 
>
<text fill="#000000" fill-opacity="1" stroke="none" xml:space="preserve" x="0" y="0" font-family="Sebastian" font-size="40" font-weight="400" font-style="normal" 
 ></text>
</g>

<g fill="none" stroke="#000000" stroke-opacity="1" stroke-width="1" stroke-linecap="square" stroke-linejoin="bevel" transform="matrix(0.5,0,0,0.5,139.566,183.316)"
font-family="Sebastian" font-size="40" font-weight="400" font-style="normal" 
>
<text fill="#000000" fill-opacity="1" stroke="none" xml:space="preserve" x="0" y="0" font-family="Sebastian" font-size="40" font-weight="400" font-style="normal" 
 ></text>
</g>

<g fill="none" stroke="#000000" stroke-opacity="1" stroke-width="1" stroke-linecap="square" stroke-linejoin="bevel" transform="matrix(0.5,0,0,0.5,139.566,193.316)"
font-family="Sebastian" font-size="40" font-weight="400" font-style="normal" 
>
<text fill="#000000" fill-opacity="1" stroke="none" xml:space="preserve" x="0" y="0" font-family="Sebastian" font-size="40" font-weight="400" font-style="normal" 
 ></text>
</g>

<g fill="none" stroke="#000000" stroke-opacity="1" stroke-width="1" stroke-linecap="square" stroke-linejoin="bevel" transform="matrix(0.5,0,0,0.5,139.566,129.39)"
font-family="Sebastian" font-size="40" font-weight="400" font-style="normal" 
>
<text fill="#000000" fill-opacity="1" stroke="none" xml:space="preserve" x="0" y="0" font-family="Sebastian" font-size="40" font-weight="400" font-style="normal" 
 ></text>
</g>

<g fill="none" stroke="#000000" stroke-opacity="1" stroke-width="1" stroke-linecap="square" stroke-linejoin="bevel" transform="matrix(0.5,0,0,0.5,139.566,139.39)"
font-family="Sebastian" font-size="40" font-weight="400" font-style="normal" 
>
<text fill="#000000" fill-opacity="1" stroke="none" xml:space="preserve" x="0" y="0" font-family="Sebastian" font-size="40" font-weight="400" font-style="normal" 
 ></text>
</g>

<g fill="#000000" fill-opacity="1" stroke="none" transform="matrix(1,0,0,1,0.267717,0.401575)"
font-family="Sebastian" font-size="40" font-weight="400" font-style="normal" 
>
<path vector-effect="none" fill-rule="nonzero" d="M42.0335,341.441 L42.0335,340.821 L48.5448,340.821 L48.5448,341.441 L42.0335,341.441"/>
<path vector-effect="none" fill-rule="nonzero" d="M42.0335,271.366 L42.0335,341.441 L42.6536,341.441 L42.6536,271.366 L42.0335,271.366"/>
<path vector-effect="none" fill-rule="nonzero" d="M42.0335,271.986 L42.0335,271.366 L48.5448,271.366 L48.5448,271.986 L42.0335,271.986"/>
<path vector-effect="none" fill-rule="nonzero" d="M43.1702,198.146 L43.1702,197.526 L49.6816,197.526 L49.6816,198.146 L43.1702,198.146"/>
<path vector-effect="none" fill-rule="nonzero" d="M43.1702,123.756 L43.1702,198.146 L43.7903,198.146 L43.7903,123.756 L43.1702,123.756"/>
<path vector-effect="none" fill-rule="nonzero" d="M43.1702,124.376 L43.1702,123.756 L49.6816,123.756 L49.6816,124.376 L43.1702,124.376"/>
</g>

<g fill="#ffffff" fill-opacity="1" stroke="none" transform="matrix(1,0,0,1,0.267717,0.401575)"
font-family="Sebastian" font-size="40" font-weight="400" font-style="normal" 
>
<rect x="37.7244" y="291.919" width="9.23834" height="28.9689"/>
</g>

<g fill="none" stroke="none" transform="matrix(1,0,0,1,0.267717,0.401575)"
font-family="Sebastian" font-size="40" font-weight="400" font-style="normal" 
>
<path vector-effect="none" fill-rule="evenodd" d="M37.7244,291.919 L46.9627,291.919 L46.9627,320.888 L37.7244,320.888 L37.7244,291.919"/>
</g>

<g fill="#ffffff" fill-opacity="1" stroke="none" transform="matrix(1,0,0,1,0.267717,0.401575)"
font-family="Sebastian" font-size="40" font-weight="400" font-style="normal" 
>
<rect x="37.6072" y="142.889" width="11.7462" height="36.1251"/>
</g>

<g fill="none" stroke="none" transform="matrix(1,0,0,1,0.267717,0.401575)"
font-family="Sebastian" font-size="40" font-weight="400" font-style="normal" 
>
<path vector-effect="none" fill-rule="evenodd" d="M37.6072,142.889 L49.3533,142.889 L49.3533,179.014 L37.6072,179.014 L37.6072,142.889"/>
</g>

<g fill="#ffffff" fill-opacity="1" stroke="none" transform="matrix(1,0,0,1,0.267717,0.401575)"
font-family="Sebastian" font-size="40" font-weight="400" font-style="normal" 
>
</g>

<g fill="#ffffff" fill-opacity="1" stroke="none" transform="matrix(0.5,0,0,0.5,46.4931,129.163)"
font-family="Sebastian" font-size="40" font-weight="400" font-style="normal" 
>
</g>

<g fill="#ffffff" fill-opacity="1" stroke="#000000" stroke-opacity="1" stroke-width="1" stroke-linecap="square" stroke-linejoin="bevel" transform="matrix(0.5,0,0,0.5,46.4931,129.163)"
font-family="Sebastian" font-size="40" font-weight="400" font-style="normal" 
>
<text fill="#000000" fill-opacity="1" stroke="none" xml:space="preserve" x="63.8438" y="14.8438" font-family="Nepomuk" font-size="19.8442" font-weight="400" font-style="normal" 
 >Violin</text>
</g>

<g fill="#ffffff" fill-opacity="1" stroke="none" transform="matrix(0.5,0,0,0.5,46.4931,129.163)"
font-family="Sebastian" font-size="40" font-weight="400" font-style="normal" 
>
</g>

<g fill="#ffffff" fill-opacity="1" stroke="none" transform="matrix(1,0,0,1,0.267717,0.401575)"
font-family="Sebastian" font-size="40" font-weight="400" font-style="normal" 
>
</g>

<g fill="#ffffff" fill-opacity="1" stroke="none" transform="matrix(0.5,0,0,0.5,46.4931,183.089)"
font-family="Sebastian" font-size="40" font-weight="400" font-style="normal" 
>
</g>

<g fill="#ffffff" fill-opacity="1" stroke="#000000" stroke-opacity="1" stroke-width="1" stroke-linecap="square" stroke-linejoin="bevel" transform="matrix(0.5,0,0,0.5,46.4931,183.089)"
font-family="Sebastian" font-size="40" font-weight="400" font-style="normal" 
>
<text fill="#000000" fill-opacity="1" stroke="none" xml:space="preserve" x="21.7188" y="14.8438" font-family="Nepomuk" font-size="19.8442" font-weight="400" font-style="normal" 
 >Violoncello</text>
</g>

<g fill="#ffffff" fill-opacity="1" stroke="none" transform="matrix(0.5,0,0,0.5,46.4931,183.089)"
font-family="Sebastian" font-size="40" font-weight="400" font-style="normal" 
>
</g>

<g fill="#ffffff" fill-opacity="1" stroke="none" transform="matrix(1,0,0,1,0.267717,0.401575)"
font-family="Sebastian" font-size="40" font-weight="400" font-style="normal" 
>
</g>

<g fill="#ffffff" fill-opacity="1" stroke="none" transform="matrix(0.5,0,0,0.5,46.4931,301.579)"
font-family="Sebastian" font-size="40" font-weight="400" font-style="normal" 
>
</g>

<g fill="#ffffff" fill-opacity="1" stroke="#000000" stroke-opacity="1" stroke-width="1" stroke-linecap="square" stroke-linejoin="bevel" transform="matrix(0.5,0,0,0.5,46.4931,301.579)"
font-family="Sebastian" font-size="40" font-weight="400" font-style="normal" 
>
<text fill="#000000" fill-opacity="1" stroke="none" xml:space="preserve" x="67.9844" y="14.8438" font-family="Nepomuk" font-size="19.8442" font-weight="400" font-style="normal" 
 >Piano</text>
</g>

<g fill="#ffffff" fill-opacity="1" stroke="none" transform="matrix(0.5,0,0,0.5,46.4931,301.579)"
font-family="Sebastian" font-size="40" font-weight="400" font-style="normal" 
>
</g>

<g fill="#ffffff" fill-opacity="1" stroke="none" transform="matrix(1,0,0,1,0.267717,0.401575)"
font-family="Sebastian" font-size="40" font-weight="400" font-style="normal" 
>
</g>

<g fill="#ffffff" fill-opacity="1" stroke="none" transform="matrix(0,-0.5,0.5,0,38.4511,318.809)"
font-family="Sebastian" font-size="40" font-weight="400" font-style="normal" 
>
</g>

<g fill="#ffffff" fill-opacity="1" stroke="#000000" stroke-opacity="1" stroke-width="1" stroke-linecap="square" stroke-linejoin="bevel" transform="matrix(0,-0.5,0.5,0,38.4511,318.809)"
font-family="Sebastian" font-size="40" font-weight="400" font-style="normal" 
>
<text fill="#000000" fill-opacity="1" stroke="none" xml:space="preserve" x="0" y="14.8438" font-family="Nepomuk" font-size="19.8442" font-weight="400" font-style="normal" 
 >Piano</text>
</g>

<g fill="#ffffff" fill-opacity="1" stroke="none" transform="matrix(0,-0.5,0.5,0,38.4511,318.809)"
font-family="Sebastian" font-size="40" font-weight="400" font-style="normal" 
>
</g>

<g fill="#ffffff" fill-opacity="1" stroke="none" transform="matrix(1,0,0,1,0.267717,0.401575)"
font-family="Sebastian" font-size="40" font-weight="400" font-style="normal" 
>
</g>

<g fill="#ffffff" fill-opacity="1" stroke="none" transform="matrix(0,-0.5,0.5,0,38.4511,176.935)"
font-family="Sebastian" font-size="40" font-weight="400" font-style="normal" 
>
</g>

<g fill="#ffffff" fill-opacity="1" stroke="#000000" stroke-opacity="1" stroke-width="1" stroke-linecap="square" stroke-linejoin="bevel" transform="matrix(0,-0.5,0.5,0,38.4511,176.935)"
font-family="Sebastian" font-size="40" font-weight="400" font-style="normal" 
>
<text fill="#000000" fill-opacity="1" stroke="none" xml:space="preserve" x="0" y="14.8438" font-family="Nepomuk" font-size="19.8442" font-weight="400" font-style="normal" 
 >Strings</text>
</g>

<g fill="#ffffff" fill-opacity="1" stroke="none" transform="matrix(0,-0.5,0.5,0,38.4511,176.935)"
font-family="Sebastian" font-size="40" font-weight="400" font-style="normal" 
>
</g>

<g fill="#ffffff" fill-opacity="1" stroke="none" transform="matrix(1,0,0,1,0.267717,0.401575)"
font-family="Sebastian" font-size="40" font-weight="400" font-style="normal" 
>
</g>

<g fill="#ffffff" fill-opacity="1" stroke="#000000" stroke-opacity="1" stroke-width="2" stroke-linecap="butt" stroke-linejoin="miter" stroke-miterlimit="2" transform="matrix(1,0,0,1,0.267717,0.401575)"
font-family="Sebastian" font-size="40" font-weight="400" font-style="normal" 
>
</g>
</g>
</svg>
