<svg xmlns="http://www.w3.org/2000/svg" width="800" height="320" viewBox="0 0 800 320">
  <line x1="107.789" y1="70.0333" x2="107.789" y2="268.47" stroke="#000" stroke-width="1" />

  <polyline points="108.175,70.3465 620,70.3465" fill="none" stroke="#000" stroke-width="1" />
  <polyline points="108.175,75.1654 620,75.1654" fill="none" stroke="#000" stroke-width="1" />
  <polyline points="108.175,79.9843 620,79.9843" fill="none" stroke="#000" stroke-width="1" />
  <polyline points="108.175,84.8032 620,84.8032" fill="none" stroke="#000" stroke-width="1" />
  <polyline points="108.175,89.6221 620,89.6221" fill="none" stroke="#000" stroke-width="1" />

  <polyline points="108.175,190.147 620,190.147" fill="none" stroke="#000" stroke-width="1" />
  <polyline points="108.175,194.966 620,194.966" fill="none" stroke="#000" stroke-width="1" />
  <polyline points="108.175,199.785 620,199.785" fill="none" stroke="#000" stroke-width="1" />
  <polyline points="108.175,204.604 620,204.604" fill="none" stroke="#000" stroke-width="1" />
  <polyline points="108.175,209.423 620,209.423" fill="none" stroke="#000" stroke-width="1" />

  <polyline points="108.175,248.881 620,248.881" fill="none" stroke="#000" stroke-width="1" />
  <polyline points="108.175,253.7 620,253.7" fill="none" stroke="#000" stroke-width="1" />
  <polyline points="108.175,258.519 620,258.519" fill="none" stroke="#000" stroke-width="1" />
  <polyline points="108.175,263.338 620,263.338" fill="none" stroke="#000" stroke-width="1" />
  <polyline points="108.175,268.157 620,268.157" fill="none" stroke="#000" stroke-width="1" />

  <polyline points="100.561,70.3465 108.175,70.3465" fill="none" stroke="#000" stroke-width="1" />
  <polyline points="100.561,268.157 108.175,268.157" fill="none" stroke="#000" stroke-width="1" />
  <polyline points="100.946,70.3465 100.946,268.157" fill="none" stroke="#000" stroke-width="1" />

  <polyline points="97.4327,190.147 100.946,190.147" fill="none" stroke="#000" stroke-width="1" />
  <polyline points="97.4327,268.157 100.946,268.157" fill="none" stroke="#000" stroke-width="1" />
  <polyline points="97.7338,190.147 97.7338,268.157" fill="none" stroke="#000" stroke-width="1" />
</svg>
