<svg xmlns="http://www.w3.org/2000/svg" width="260" height="120" viewBox="0 0 260 120">
  <rect width="260" height="120" fill="#fff"/>

  <line x1="20" y1="70" x2="240" y2="70" stroke="#000" stroke-width="1"/>
  <line x1="20" y1="80" x2="240" y2="80" stroke="#000" stroke-width="1"/>
  <line x1="20" y1="90" x2="240" y2="90" stroke="#000" stroke-width="1"/>
  <line x1="20" y1="100" x2="240" y2="100" stroke="#000" stroke-width="1"/>
  <line x1="20" y1="110" x2="240" y2="110" stroke="#000" stroke-width="1"/>

  <line x1="20" y1="70" x2="20" y2="110" stroke="#000" stroke-width="2"/>
  <line x1="126" y1="70" x2="126" y2="110" stroke="#000" stroke-width="1.5"/>
  <line x1="240" y1="70" x2="240" y2="110" stroke="#000" stroke-width="2"/>

  <g fill="#ffffff" stroke="none">
    <rect x="138.54" y="22.6066" width="10.48" height="11.0437"/>
  </g>
  <g fill="none" stroke="none">
    <path vector-effect="none" fill-rule="evenodd" d="M138.54,22.6066 L149.02,22.6066 L149.02,33.6503 L138.54,33.6503 L138.54,22.6066"/>
  </g>
  <g fill="none" stroke="#000000" stroke-width="0.4192">
    <path vector-effect="none" fill-rule="evenodd" d="M138.54,22.6066 L149.02,22.6066 L149.02,33.6503 L138.54,33.6503 L138.54,22.6066"/>
  </g>
  <g fill="none" stroke="#000000" stroke-width="1" stroke-linecap="square" stroke-linejoin="bevel" transform="matrix(0.5,0,0,0.5,141.08,24.2985)">
    <text fill="#000000" stroke="none" xml:space="preserve" x="0" y="15.1406" font-family="Times New Roman" font-size="16.768" font-weight="700">C</text>
  </g>
</svg>
